<svg width="35" height="29" viewBox="0 0 35 29" fill="none" xmlns="http://www.w3.org/2000/svg">
<g clip-path="url(#clip0_1_67)">
<path d="M29.6705 10.416V10.2118L29.4914 10.31L17.4952 16.8892C17.4952 16.8892 17.4952 16.8892 17.4952 16.8892C17.3876 16.9482 17.2681 16.9824 17.1454 16.9894C17.0238 16.9962 16.9021 16.9761 16.7893 16.9303L16.6997 16.8882L4.7068 10.3093L4.52771 10.211V10.4153V22.0026C4.52771 22.5836 4.75916 23.1406 5.17103 23.5513C5.58289 23.962 6.14141 24.1927 6.72371 24.1927H27.4745C28.0568 24.1927 28.6153 23.962 29.0271 23.5513C29.439 23.1406 29.6705 22.5836 29.6705 22.0026V10.416ZM4.52771 8.27012V8.34172L4.5905 8.37615L17.0409 15.2036L17.0991 15.2355L17.1572 15.2036L29.6077 8.3754L29.6705 8.34097V8.26937V7.33035C29.6705 6.74939 29.439 6.19229 29.0271 5.7816C28.6153 5.37092 28.0568 5.14026 27.4745 5.14026H6.72371C6.14141 5.14026 5.58289 5.37092 5.17103 5.7816C4.75916 6.19229 4.52771 6.74939 4.52771 7.33035V8.27012ZM27.4745 3.50105C29.5963 3.50105 31.315 5.21543 31.315 7.33035V22.0026C31.315 24.1175 29.5963 25.8319 27.4745 25.8319H6.72371C5.70502 25.8319 4.72811 25.4284 4.00789 24.7102C3.28768 23.992 2.88313 23.0181 2.88313 22.0026V7.33035C2.88313 5.21543 4.60191 3.50105 6.72371 3.50105H27.4745Z" fill="black" stroke="#FFFAF3" stroke-width="0.24185"/>
</g>
<rect x="1.55296" y="2.17088" width="31.4405" height="24.9912" stroke="#FFFAF3" stroke-width="2.4185"/>
<defs>
<clipPath id="clip0_1_67">
<rect x="2.76221" y="3.38013" width="29.022" height="22.5727" fill="white"/>
</clipPath>
</defs>
</svg>
