<svg width="30" height="23" viewBox="0 0 30 23" fill="none" xmlns="http://www.w3.org/2000/svg">
<path d="M27.6705 7.41603V7.2118L27.4914 7.31001L15.4952 13.8892C15.4952 13.8892 15.4952 13.8892 15.4952 13.8892C15.3876 13.9482 15.2681 13.9824 15.1454 13.9894C15.0238 13.9962 14.9021 13.9761 14.7893 13.9303L14.6997 13.8882L2.7068 7.30926L2.52771 7.21102V7.41528V19.0026C2.52771 19.5836 2.75916 20.1406 3.17103 20.5513C3.58289 20.962 4.14141 21.1927 4.72371 21.1927H25.4745C26.0568 21.1927 26.6153 20.962 27.0271 20.5513C27.439 20.1406 27.6705 19.5836 27.6705 19.0026V7.41603ZM2.52771 5.27012V5.34172L2.5905 5.37615L15.0409 12.2036L15.0991 12.2355L15.1572 12.2036L27.6077 5.3754L27.6705 5.34097V5.26937V4.33035C27.6705 3.74939 27.439 3.19229 27.0271 2.7816C26.6153 2.37092 26.0568 2.14026 25.4745 2.14026H4.72371C4.14141 2.14026 3.58289 2.37092 3.17103 2.7816C2.75916 3.19229 2.52771 3.74939 2.52771 4.33035V5.27012ZM25.4745 0.501052C27.5963 0.501052 29.315 2.21543 29.315 4.33035V19.0026C29.315 21.1175 27.5963 22.8319 25.4745 22.8319H4.72371C3.70502 22.8319 2.72811 22.4284 2.00789 21.7102C1.28768 20.992 0.883132 20.0181 0.883132 19.0026V4.33035C0.883132 2.21543 2.60191 0.501052 4.72371 0.501052H25.4745Z" fill="black" stroke="#FFFAF3" stroke-width="0.24185"/>
</svg>
