<svg width="23" height="23" viewBox="0 0 23 23" fill="none" xmlns="http://www.w3.org/2000/svg">
<path d="M11.7048 6.34877C10.657 6.34877 9.63277 6.64837 8.76157 7.2097C7.89037 7.77102 7.21136 8.56886 6.81039 9.50231C6.40942 10.4358 6.30451 11.4629 6.50892 12.4538C6.71333 13.4448 7.21789 14.355 7.95878 15.0695C8.69967 15.7839 9.64363 16.2704 10.6713 16.4675C11.6989 16.6647 12.7641 16.5635 13.7321 16.1768C14.7002 15.7902 15.5275 15.1354 16.1097 14.2953C16.6918 13.4553 17.0025 12.4676 17.0025 11.4572C17.0009 10.1029 16.4422 8.80438 15.4491 7.84669C14.4559 6.889 13.1093 6.35029 11.7048 6.34877ZM11.7048 15.2331C10.9304 15.2331 10.1733 15.0116 9.52937 14.5967C8.88544 14.1818 8.38356 13.5921 8.08719 12.9022C7.79083 12.2122 7.71328 11.453 7.86437 10.7206C8.01546 9.98817 8.38839 9.31538 8.936 8.78732C9.48362 8.25926 10.1813 7.89965 10.9409 7.75396C11.7005 7.60827 12.4878 7.68304 13.2033 7.96883C13.9188 8.25461 14.5303 8.73857 14.9606 9.3595C15.3908 9.98043 15.6205 10.7104 15.6205 11.4572C15.6193 12.4583 15.2064 13.418 14.4723 14.1259C13.7382 14.8337 12.7429 15.2319 11.7048 15.2331ZM16.7721 0.573975H6.63746C4.98866 0.575797 3.40793 1.2082 2.24205 2.33244C1.07617 3.45668 0.420347 4.98096 0.418457 6.57087V16.3436C0.420347 17.9335 1.07617 19.4578 2.24205 20.582C3.40793 21.7063 4.98866 22.3387 6.63746 22.3405H16.7721C18.4209 22.3387 20.0017 21.7063 21.1676 20.582C22.3334 19.4578 22.9893 17.9335 22.9911 16.3436V6.57087C22.9893 4.98096 22.3334 3.45668 21.1676 2.33244C20.0017 1.2082 18.4209 0.575797 16.7721 0.573975ZM21.6091 16.3436C21.6077 17.5802 21.0976 18.7658 20.1908 19.6402C19.284 20.5146 18.0546 21.0065 16.7721 21.0078H6.63746C5.35505 21.0065 4.12557 20.5146 3.21877 19.6402C2.31196 18.7658 1.80189 17.5802 1.80046 16.3436V6.57087C1.80189 5.33426 2.31196 4.14869 3.21877 3.27427C4.12557 2.39985 5.35505 1.908 6.63746 1.90662H16.7721C18.0546 1.908 19.284 2.39985 20.1908 3.27427C21.0976 4.14869 21.6077 5.33426 21.6091 6.57087V16.3436ZM18.8451 5.68244C18.8451 5.90209 18.7776 6.1168 18.651 6.29942C18.5245 6.48205 18.3446 6.62439 18.1342 6.70845C17.9238 6.7925 17.6922 6.81449 17.4688 6.77164C17.2454 6.72879 17.0402 6.62302 16.8791 6.46771C16.7181 6.3124 16.6084 6.11452 16.5639 5.8991C16.5195 5.68368 16.5423 5.46038 16.6295 5.25746C16.7166 5.05454 16.8642 4.88109 17.0536 4.75907C17.243 4.63704 17.4657 4.57191 17.6935 4.57191C17.9988 4.57226 18.2915 4.68938 18.5074 4.89756C18.7233 5.10575 18.8448 5.38802 18.8451 5.68244Z" fill="black"/>
</svg>
