<svg width="166" height="52" viewBox="0 0 166 52" fill="none" xmlns="http://www.w3.org/2000/svg">
<g filter="url(#filter0_d_8_571)">
<path d="M31.1776 23.2749L31.1774 23.275L31.1688 23.2655C31.1686 23.2654 31.1685 23.2652 31.1684 23.2651L31.1117 23.2061L21.4812 13.1854L21.1496 12.8404L21.4797 12.494L29.4872 4.09179L29.635 3.93674H29.636C29.6409 3.93146 29.6457 3.92626 29.6504 3.92115L29.6503 3.9211L29.656 3.91513L31.571 1.90572L31.5709 1.90562L31.5795 1.89702C31.8732 1.60342 32.124 1.36159 32.3378 1.16228H31.7937H28.7467L20.0207 10.8198L19.6474 11.2329L19.2767 10.8175L10.6591 1.16228H7.50443H6.96112C7.38258 1.55524 7.94912 2.11493 8.7072 2.91306L8.70722 2.91305L8.71032 2.91637L9.66197 3.93674H9.66212L9.81039 4.09573L17.6802 12.5347L17.9999 12.8776L17.6783 13.2187L8.26599 23.2026L8.11797 23.3596H8.11331C8.05942 23.418 8.0067 23.4749 7.95457 23.5311C7.92286 23.5653 7.89137 23.5993 7.85997 23.6333L7.85998 23.6333L7.85678 23.6367L6.87705 24.6759L6.87707 24.6759L6.8736 24.6795C6.2552 25.3225 5.77751 25.7916 5.40992 26.1343H5.95484H9.04524L19.244 14.9303L19.6125 14.5255L19.9824 14.929L30.2536 26.1343H33.4138H33.9581C33.8439 26.0279 33.7193 25.9094 33.5833 25.7775L33.577 25.7714L33.5709 25.7651L31.1776 23.2749Z" stroke="black"/>
<path d="M143.856 11.1016L143.856 11.1016C144.386 11.2178 145.042 11.312 145.819 11.3868C145.819 11.3869 145.819 11.3869 145.819 11.3869L153.685 12.1591C153.685 12.1591 153.686 12.1592 153.686 12.1592C156.261 12.4232 158.189 13.1367 159.523 14.2525C160.833 15.348 161.5 16.8434 161.5 18.7984C161.5 19.8172 161.319 20.7573 160.963 21.6247C160.611 22.4798 160.022 23.3123 159.176 24.1206C158.366 24.8927 157.155 25.5367 155.499 26.0257L155.499 26.0258C153.856 26.5113 151.882 26.7595 149.568 26.7595C146.457 26.7595 143.643 26.2892 141.118 25.3558L141.118 25.3558C138.838 24.5126 137.146 23.2586 136.01 21.6052L137.493 20.9848L137.496 20.9836L137.496 20.9836L138.683 20.4784C138.691 20.4969 138.698 20.5156 138.707 20.5344C138.925 21.0376 139.441 21.6444 140.531 22.3309C140.533 22.3321 140.534 22.3332 140.536 22.3342C140.54 22.3366 140.543 22.3387 140.546 22.3405C140.825 22.5153 141.148 22.6967 141.505 22.8812L141.511 22.8845L141.511 22.8845C141.803 23.0298 142.111 23.1714 142.443 23.3071C144.508 24.1732 147.009 24.5958 149.927 24.5958C152.997 24.5958 155.391 23.9995 157.026 22.7241L157.028 22.7225C158.294 21.724 158.943 20.4159 158.943 18.8352C158.943 17.9695 158.737 17.2038 158.298 16.5652L158.298 16.5649C157.86 15.93 157.229 15.4629 156.434 15.1508L156.434 15.1507C155.692 14.8601 154.986 14.6481 154.316 14.5184L154.316 14.5183C153.658 14.3917 152.868 14.2914 151.947 14.2168L148.071 13.8493C148.071 13.8493 148.071 13.8493 148.071 13.8493C146.01 13.6532 144.588 13.5006 143.798 13.3919L143.798 13.3919C143.034 13.2869 142.217 13.0819 141.346 12.7724L141.346 12.7723C140.502 12.4732 139.817 12.0652 139.276 11.5555L139.276 11.555C138.186 10.5295 137.637 9.21748 137.637 7.57814C137.637 6.32967 137.912 5.26867 138.446 4.37688C138.979 3.48486 139.788 2.73381 140.896 2.13166L140.902 2.12848L140.902 2.12844C142.81 1.05923 145.503 0.499887 149.029 0.499887C154.69 0.499887 158.609 2.03929 160.932 5.00458L159.299 5.67676L158.854 5.85977L158.858 5.86852L158.106 6.1879C158.071 6.09867 158.026 6.00538 157.969 5.90846C157.683 5.41655 157.105 4.8315 155.994 4.17365L156.063 4.1381L155.136 3.70551C154.963 3.62471 154.787 3.5467 154.608 3.47341C154.608 3.4734 154.608 3.47339 154.608 3.47338L154.46 3.83459L154.331 3.90072C152.909 3.33588 151.154 3.05325 149.065 3.05325C148.035 3.05325 147.065 3.12117 146.155 3.25564C145.244 3.39079 144.364 3.6049 143.514 3.89934C142.664 4.19356 141.987 4.64142 141.484 5.24203C140.981 5.84354 140.73 6.5608 140.73 7.39425C140.73 8.05623 140.867 8.61465 141.143 9.06816C141.418 9.52211 141.831 9.86529 142.382 10.0981M143.856 11.1016L143.963 10.6132C143.46 10.5027 142.933 10.3314 142.382 10.0981M143.856 11.1016C143.319 10.9836 142.762 10.8021 142.187 10.5585M143.856 11.1016L142.187 10.5585M142.382 10.0981L142.187 10.5585M142.382 10.0981L142.188 10.5587C142.188 10.5586 142.187 10.5586 142.187 10.5585M142.187 10.5585C141.553 10.2904 141.052 9.88286 140.715 9.32788C140.382 8.77865 140.23 8.12501 140.23 7.39425C140.23 6.4515 140.517 5.61866 141.101 4.92125L141.101 4.92097C141.67 4.24128 142.427 3.74633 143.35 3.42689L142.187 10.5585ZM154.697 3.71341L154.924 4.1573L154.46 3.83458L154.695 3.71431L154.697 3.71341ZM155.463 4.44524C156.965 5.28257 157.483 5.95641 157.648 6.38775L155.463 4.44524Z" stroke="black"/>
<path d="M38.8659 26.1343H40.1008H41.5313C41.5273 23.9955 41.5035 17.0018 41.46 5.15222L41.4553 3.86827L42.3271 4.8109L62.0479 26.1343H64.8504V3.65721H64.8503L64.8505 3.64682C64.8765 2.39725 64.9628 1.63438 65.0599 1.16228H63.8237H62.4023C62.4092 3.14921 62.4447 10.1301 62.509 22.1067L62.516 23.3992L61.641 22.4479L42.0641 1.16228H39.0828V22.8596C39.0828 24.5962 38.9813 25.5745 38.8659 26.1343Z" stroke="black"/>
<path d="M102.112 1.16228C102.224 1.70827 102.324 2.65118 102.329 4.30428V4.30588L102.329 22.9907L102.329 22.9923C102.324 24.6454 102.224 25.5883 102.112 26.1343H103.348H103.73H104.965C104.853 25.5883 104.754 24.6454 104.749 22.9923H104.749V22.9907L104.749 4.30588L104.749 4.30428C104.754 2.65118 104.853 1.70827 104.965 1.16228H103.73H103.348H102.112Z" stroke="black"/>
<path d="M128.839 23.633V23.633H128.834H115.089H114.589V23.133V4.43672V3.93672H114.594C114.612 2.50823 114.704 1.66586 114.808 1.16226H113.573H113.192H111.955C112.05 1.6211 112.134 2.35358 112.162 3.53839L112.163 3.53839V3.55047V23.7458H112.163L112.162 23.7579C112.134 24.9427 112.05 25.6752 111.955 26.134H113.192H131.607V24.6905V23.416C131.1 23.5233 130.258 23.6172 128.839 23.633Z" stroke="black"/>
<mask id="path-6-inside-1_8_571" fill="white">
<path d="M77.1121 17.2535L83.4356 4.37762L89.6516 17.2535H77.1121ZM96.5877 22.8596H96.5642L85.4478 0.662277H81.6033L69.7452 24.082C68.4294 26.4838 68.0215 26.6343 68.0215 26.6343H68.453H68.458H69.9761H72.5129L75.6031 20.2333H91.1966L94.2865 26.6343H97.0031H98.4544H98.5212H98.9577C98.9577 26.6343 98.4209 26.4387 96.5877 22.8596Z"/>
</mask>
<path d="M77.1121 17.2535V18.2535H75.5069L76.2145 16.8127L77.1121 17.2535ZM83.4356 4.37762L82.538 3.9368L83.4433 2.09343L84.3362 3.94287L83.4356 4.37762ZM89.6516 17.2535L90.5522 16.8188L91.2448 18.2535H89.6516V17.2535ZM96.5642 22.8596V23.8596H95.9466L95.67 23.3074L96.5642 22.8596ZM85.4478 0.662277V-0.337723H86.0653L86.3419 0.214491L85.4478 0.662277ZM81.6033 0.662277L80.7112 0.21055L80.9888 -0.337723H81.6033V0.662277ZM69.7452 24.082L70.6373 24.5337L70.63 24.5482L70.6222 24.5625L69.7452 24.082ZM68.0215 26.6343V27.6343L67.6753 25.6961L68.0215 26.6343ZM72.5129 26.6343L73.4135 27.069L73.1406 27.6343H72.5129V26.6343ZM75.6031 20.2333L74.7025 19.7986L74.9754 19.2333H75.6031V20.2333ZM91.1966 20.2333V19.2333H91.8243L92.0971 19.7986L91.1966 20.2333ZM94.2865 26.6343V27.6343H93.6588L93.3859 27.069L94.2865 26.6343ZM98.9577 26.6343L99.3001 25.6947L98.9577 27.6343V26.6343ZM76.2145 16.8127L82.538 3.9368L84.3332 4.81844L78.0097 17.6943L76.2145 16.8127ZM84.3362 3.94287L90.5522 16.8188L88.7511 17.6883L82.5351 4.81237L84.3362 3.94287ZM89.6516 18.2535H77.1121V16.2535H89.6516V18.2535ZM96.5877 23.8596H96.5642V21.8596H96.5877V23.8596ZM95.67 23.3074L84.5536 1.11006L86.3419 0.214491L97.4583 22.4118L95.67 23.3074ZM85.4478 1.66228H81.6033V-0.337723H85.4478V1.66228ZM82.4955 1.114L70.6373 24.5337L68.853 23.6303L80.7112 0.21055L82.4955 1.114ZM70.6222 24.5625C69.9512 25.7872 69.4899 26.4789 69.1751 26.8781C69.0171 27.0784 68.8835 27.2211 68.7656 27.3246C68.7058 27.3772 68.6448 27.4242 68.5816 27.4647C68.5497 27.4852 68.5162 27.5047 68.481 27.5227C68.4633 27.5317 68.445 27.5404 68.4262 27.5488C68.4168 27.5529 68.4072 27.557 68.3974 27.5609C68.3925 27.5629 68.3876 27.5649 68.3826 27.5668C68.3802 27.5677 68.3777 27.5687 68.3752 27.5696C68.3739 27.5701 68.372 27.5708 68.3714 27.5711C68.3695 27.5718 68.3676 27.5725 68.0215 26.6343C67.6753 25.6961 67.6735 25.6968 67.6716 25.6975C67.6709 25.6977 67.6691 25.6984 67.6678 25.6989C67.6654 25.6998 67.6629 25.7008 67.6605 25.7017C67.6556 25.7036 67.6508 25.7055 67.6462 25.7074C67.6368 25.7112 67.6278 25.715 67.6192 25.7188C67.602 25.7264 67.5862 25.734 67.5718 25.7413C67.5432 25.7559 67.5197 25.7698 67.5015 25.7815C67.4658 25.8044 67.447 25.8209 67.4459 25.8218C67.4456 25.8221 67.4963 25.7771 67.6047 25.6396C67.8228 25.3631 68.2233 24.7786 68.8681 23.6016L70.6222 24.5625ZM68.0215 25.6343H68.453V27.6343H68.0215V25.6343ZM68.453 25.6343H68.458V27.6343H68.453V25.6343ZM68.458 25.6343H69.9761V27.6343H68.458V25.6343ZM69.9761 25.6343H72.5129V27.6343H69.9761V25.6343ZM71.6124 26.1995L74.7025 19.7986L76.5036 20.6681L73.4135 27.069L71.6124 26.1995ZM75.6031 19.2333H91.1966V21.2333H75.6031V19.2333ZM92.0971 19.7986L95.1871 26.1995L93.3859 27.069L90.296 20.6681L92.0971 19.7986ZM94.2865 25.6343H97.0031V27.6343H94.2865V25.6343ZM97.0031 25.6343H98.4544V27.6343H97.0031V25.6343ZM98.4544 25.6343H98.5212V27.6343H98.4544V25.6343ZM98.5212 25.6343H98.9577V27.6343H98.5212V25.6343ZM98.9577 26.6343C98.6154 27.5738 98.6132 27.573 98.611 27.5722C98.6102 27.572 98.6081 27.5712 98.6066 27.5706C98.6037 27.5695 98.6008 27.5684 98.598 27.5673C98.5922 27.5651 98.5865 27.5629 98.5809 27.5606C98.5697 27.556 98.5586 27.5513 98.5478 27.5464C98.5262 27.5368 98.5054 27.5266 98.4853 27.516C98.4452 27.4949 98.4072 27.4718 98.3712 27.4474C98.2999 27.3992 98.2301 27.3421 98.1602 27.2763C98.0222 27.1465 97.8576 26.9588 97.6533 26.6798C97.2454 26.1227 96.6253 25.1266 95.6977 23.3155L97.4778 22.4037C98.3833 24.1717 98.9483 25.0629 99.2671 25.4984C99.4262 25.7157 99.5103 25.8005 99.5303 25.8193C99.5393 25.8278 99.5258 25.8138 99.491 25.7903C99.4732 25.7783 99.4486 25.7629 99.4173 25.7464C99.4016 25.7381 99.3839 25.7295 99.3645 25.7208C99.3547 25.7164 99.3445 25.712 99.3338 25.7077C99.3284 25.7055 99.3229 25.7033 99.3173 25.7012C99.3145 25.7001 99.3117 25.699 99.3088 25.6979C99.3074 25.6974 99.3052 25.6966 99.3045 25.6963C99.3023 25.6955 99.3001 25.6947 98.9577 26.6343Z" fill="black" mask="url(#path-6-inside-1_8_571)"/>
<path d="M41.6415 38.1949C41.6395 38.2212 41.6358 38.2386 41.6328 38.2488C41.6278 38.2494 41.6207 38.2499 41.6115 38.2499C41.6013 38.2499 41.595 38.2491 41.5919 38.2485C41.5907 38.2483 41.5898 38.248 41.5893 38.2479C41.5885 38.2473 41.5867 38.2458 41.584 38.243L41.5832 38.2422C41.5794 38.2384 41.5777 38.2359 41.577 38.2348C41.5763 38.2338 41.5759 38.233 41.5754 38.2319C41.5749 38.2305 41.5712 38.2208 41.5712 38.1969H41.0712L41.2943 38.525L41.2944 38.5252L41.3523 38.6104C41.4459 38.5468 41.5369 38.4673 41.6115 38.3683C41.6317 38.3415 41.6507 38.3133 41.6682 38.2836L41.9937 38.593L41.6682 38.2835C41.6797 38.2641 41.6906 38.244 41.7007 38.2232L41.6416 38.1943C41.6415 38.1945 41.6415 38.1947 41.6415 38.1949ZM41.6415 38.1949L41.2514 38.0038" stroke="black"/>
<mask id="path-9-inside-2_8_571" fill="white">
<path d="M44.9403 41.4363V41.2605L45.6263 41.173V37.1081H44.889L44.143 38.5564H43.9028L44.0315 36.8884H48.0787L48.2074 38.5564H47.9672L47.2127 37.1081H46.4839V41.173L47.1699 41.2605V41.4363H44.9403Z"/>
</mask>
<path d="M44.9403 41.4363V42.4363H43.9403V41.4363H44.9403ZM44.9403 41.2605H43.9403V40.38L44.8137 40.2686L44.9403 41.2605ZM45.6263 41.173H46.6263V42.0535L45.7529 42.1649L45.6263 41.173ZM45.6263 37.1081V36.1081H46.6263V37.1081H45.6263ZM44.889 37.1081L43.9999 36.6503L44.2792 36.1081H44.889V37.1081ZM44.143 38.5564L45.032 39.0143L44.7528 39.5564H44.143V38.5564ZM43.9028 38.5564V39.5564H42.8227L42.9058 38.4795L43.9028 38.5564ZM44.0315 36.8884L43.0345 36.8115L43.1057 35.8884H44.0315V36.8884ZM48.0787 36.8884V35.8884H49.0045L49.0757 36.8115L48.0787 36.8884ZM48.2074 38.5564L49.2044 38.4795L49.2875 39.5564H48.2074V38.5564ZM47.9672 38.5564V39.5564H47.3606L47.0803 39.0185L47.9672 38.5564ZM47.2127 37.1081V36.1081H47.8193L48.0995 36.6461L47.2127 37.1081ZM46.4839 37.1081H45.4839V36.1081H46.4839V37.1081ZM46.4839 41.173L46.3574 42.1649L45.4839 42.0535V41.173H46.4839ZM47.1699 41.2605L47.2965 40.2686L48.1699 40.38V41.2605H47.1699ZM47.1699 41.4363H48.1699V42.4363H47.1699V41.4363ZM43.9403 41.4363V41.2605H45.9403V41.4363H43.9403ZM44.8137 40.2686L45.4997 40.181L45.7529 42.1649L45.0669 42.2525L44.8137 40.2686ZM44.6263 41.173V37.1081H46.6263V41.173H44.6263ZM45.6263 38.1081H44.889V36.1081H45.6263V38.1081ZM45.778 37.566L45.032 39.0143L43.254 38.0985L43.9999 36.6503L45.778 37.566ZM44.143 39.5564H43.9028V37.5564H44.143V39.5564ZM42.9058 38.4795L43.0345 36.8115L45.0286 36.9653L44.8999 38.6333L42.9058 38.4795ZM44.0315 35.8884H48.0787V37.8884H44.0315V35.8884ZM49.0757 36.8115L49.2044 38.4795L47.2104 38.6333L47.0817 36.9653L49.0757 36.8115ZM48.2074 39.5564H47.9672V37.5564H48.2074V39.5564ZM47.0803 39.0185L46.3258 37.5702L48.0995 36.6461L48.8541 38.0944L47.0803 39.0185ZM47.2127 38.1081H46.4839V36.1081H47.2127V38.1081ZM47.4839 37.1081V41.173H45.4839V37.1081H47.4839ZM46.6105 40.181L47.2965 40.2686L47.0433 42.2525L46.3574 42.1649L46.6105 40.181ZM48.1699 41.2605V41.4363H46.1699V41.2605H48.1699ZM47.1699 42.4363H44.9403V40.4363H47.1699V42.4363Z" fill="black" mask="url(#path-9-inside-2_8_571)"/>
<mask id="path-11-inside-3_8_571" fill="white">
<path d="M50.1521 43.7719C49.969 43.6196 49.8775 43.4147 49.8775 43.1571C49.8775 42.9818 49.9275 42.8396 50.0278 42.7313C50.1276 42.623 50.2519 42.5691 50.4007 42.5691C50.5091 42.5691 50.6065 42.5923 50.6922 42.6393C50.7781 42.686 50.8467 42.7564 50.898 42.8498C50.8123 42.973 50.7693 43.1013 50.7693 43.2363C50.7693 43.3534 50.8066 43.4499 50.8811 43.526C50.9551 43.6018 51.0494 43.6401 51.1638 43.6401C51.3011 43.6401 51.4196 43.5932 51.5197 43.4996C51.6195 43.4059 51.7098 43.2419 51.7898 43.0079L52.3044 41.4978L50.3149 37.1609L49.7402 37.0731V36.8974H51.8755V37.0731L51.2753 37.1785L52.7072 40.3129L53.7277 37.2924L52.9904 37.0731V36.8974H54.5336V37.0731L53.9505 37.2924L52.0298 43.0079C51.9099 43.3534 51.7654 43.6049 51.597 43.7629C51.4282 43.9213 51.1867 44 50.8722 44C50.575 44 50.335 43.924 50.1521 43.7719Z"/>
</mask>
<path d="M50.1521 43.7719L49.5128 44.5408L49.5127 44.5407L50.1521 43.7719ZM50.0278 42.7313L50.7631 43.4091L50.7616 43.4107L50.0278 42.7313ZM50.6922 42.6393L50.2147 43.5179L50.212 43.5164L50.6922 42.6393ZM50.898 42.8498L51.7744 42.3681L52.0732 42.9117L51.7189 43.4209L50.898 42.8498ZM50.8811 43.526L51.5954 42.8262L51.5964 42.8272L50.8811 43.526ZM51.5197 43.4996L52.2038 44.2289L52.203 44.2297L51.5197 43.4996ZM51.7898 43.0079L52.7364 43.3305L52.7361 43.3314L51.7898 43.0079ZM52.3044 41.4978L53.2133 41.0809L53.3795 41.4431L53.2509 41.8204L52.3044 41.4978ZM50.3149 37.1609L50.4659 36.1724L50.999 36.2538L51.2239 36.744L50.3149 37.1609ZM49.7402 37.0731L49.5893 38.0617L48.7402 37.932V37.0731H49.7402ZM49.7402 36.8974H48.7402V35.8974H49.7402V36.8974ZM51.8755 36.8974V35.8974H52.8755V36.8974H51.8755ZM51.8755 37.0731H52.8755V37.9129L52.0484 38.0581L51.8755 37.0731ZM51.2753 37.1785L50.3657 37.594L49.8281 36.4172L51.1024 36.1936L51.2753 37.1785ZM52.7072 40.3129L53.6546 40.6329L52.8466 43.0245L51.7976 40.7284L52.7072 40.3129ZM53.7277 37.2924L54.0128 36.3339L55.0071 36.6297L54.6751 37.6125L53.7277 37.2924ZM52.9904 37.0731L52.7053 38.0316L51.9904 37.819V37.0731H52.9904ZM52.9904 36.8974H51.9904V35.8974H52.9904V36.8974ZM54.5336 36.8974V35.8974H55.5336V36.8974H54.5336ZM54.5336 37.0731H55.5336V37.7654L54.8856 38.0091L54.5336 37.0731ZM53.9505 37.2924L53.0026 36.9739L53.1539 36.5237L53.5984 36.3564L53.9505 37.2924ZM52.0298 43.0079L52.9778 43.3265L52.9745 43.3358L52.0298 43.0079ZM51.597 43.7629L50.9127 43.0336L50.9128 43.0336L51.597 43.7629ZM49.5127 44.5407C49.0805 44.1813 48.8775 43.684 48.8775 43.1571H50.8775C50.8775 43.1662 50.8787 43.1398 50.8592 43.0963C50.8388 43.0505 50.8102 43.0186 50.7915 43.003L49.5127 44.5407ZM48.8775 43.1571C48.8775 42.7812 48.9907 42.3796 49.294 42.052L50.7616 43.4107C50.8062 43.3625 50.8388 43.3064 50.8581 43.2517C50.8765 43.1997 50.8775 43.1643 50.8775 43.1571H48.8775ZM49.2925 42.0536C49.5845 41.7367 49.9768 41.5691 50.4007 41.5691V43.5691C50.4497 43.5691 50.5189 43.5596 50.5946 43.5267C50.6706 43.4936 50.7268 43.4484 50.7631 43.4091L49.2925 42.0536ZM50.4007 41.5691C50.656 41.5691 50.9222 41.6251 51.1724 41.7621L50.212 43.5164C50.2908 43.5596 50.3621 43.5691 50.4007 43.5691V41.5691ZM51.1697 41.7606C51.4407 41.9079 51.6405 42.1246 51.7744 42.3681L50.0217 43.3315C50.0528 43.3881 50.1155 43.464 50.2147 43.5179L51.1697 41.7606ZM51.7189 43.4209C51.7245 43.4128 51.7383 43.3907 51.7502 43.3549C51.7625 43.3181 51.7693 43.2772 51.7693 43.2363H49.7693C49.7693 42.8729 49.8895 42.5484 50.0772 42.2786L51.7189 43.4209ZM51.7693 43.2363C51.7693 43.1878 51.7614 43.1173 51.7303 43.0367C51.6985 42.9543 51.6507 42.8826 51.5954 42.8262L50.1667 44.2257C49.89 43.9432 49.7693 43.5863 49.7693 43.2363H51.7693ZM51.5964 42.8272C51.5415 42.771 51.4691 42.7195 51.3823 42.6845C51.2969 42.6499 51.2199 42.6401 51.1638 42.6401V44.6401C50.801 44.6401 50.442 44.5076 50.1657 44.2247L51.5964 42.8272ZM51.1638 42.6401C51.1161 42.6401 51.0544 42.6488 50.9882 42.6749C50.9219 42.7011 50.871 42.737 50.8363 42.7695L52.203 44.2297C51.9179 44.4965 51.5551 44.6401 51.1638 44.6401V42.6401ZM50.8355 42.7702C50.8096 42.7945 50.7944 42.8138 50.7881 42.8224C50.7816 42.8312 50.7813 42.8329 50.7859 42.8246C50.796 42.8062 50.8168 42.7628 50.8436 42.6844L52.7361 43.3314C52.639 43.6152 52.4836 43.9665 52.2038 44.2289L50.8355 42.7702ZM50.8433 42.6854L51.3578 41.1753L53.2509 41.8204L52.7364 43.3305L50.8433 42.6854ZM51.3954 41.9148L49.406 37.5778L51.2239 36.744L53.2133 41.0809L51.3954 41.9148ZM50.164 38.1494L49.5893 38.0617L49.8912 36.0846L50.4659 36.1724L50.164 38.1494ZM48.7402 37.0731V36.8974H50.7402V37.0731H48.7402ZM49.7402 35.8974H51.8755V37.8974H49.7402V35.8974ZM52.8755 36.8974V37.0731H50.8755V36.8974H52.8755ZM52.0484 38.0581L51.4482 38.1634L51.1024 36.1936L51.7027 36.0882L52.0484 38.0581ZM52.1849 36.763L53.6168 39.8973L51.7976 40.7284L50.3657 37.594L52.1849 36.763ZM51.7598 39.9928L52.7803 36.9723L54.6751 37.6125L53.6546 40.6329L51.7598 39.9928ZM53.4426 38.2509L52.7053 38.0316L53.2755 36.1146L54.0128 36.3339L53.4426 38.2509ZM51.9904 37.0731V36.8974H53.9904V37.0731H51.9904ZM52.9904 35.8974H54.5336V37.8974H52.9904V35.8974ZM55.5336 36.8974V37.0731H53.5336V36.8974H55.5336ZM54.8856 38.0091L54.3025 38.2284L53.5984 36.3564L54.1815 36.1371L54.8856 38.0091ZM54.8984 37.611L52.9777 43.3265L51.0819 42.6894L53.0026 36.9739L54.8984 37.611ZM52.9745 43.3358C52.829 43.7551 52.6164 44.1777 52.2812 44.4922L50.9128 43.0336C50.9092 43.0369 50.9294 43.0188 50.9642 42.9581C50.9987 42.898 51.0406 42.8081 51.0851 42.6801L52.9745 43.3358ZM52.2813 44.4921C51.8684 44.8795 51.347 45 50.8722 45V43C50.9482 43 50.9788 42.9902 50.9785 42.9903C50.9777 42.9906 50.9693 42.9935 50.9562 43.001C50.9429 43.0087 50.9277 43.0196 50.9127 43.0336L52.2813 44.4921ZM50.8722 45C50.4013 45 49.9165 44.8765 49.5128 44.5408L50.7914 43.003C50.7856 42.9981 50.7797 42.9942 50.7747 42.9916C50.7698 42.9889 50.7682 42.9887 50.7713 42.9897C50.7778 42.9917 50.8081 43 50.8722 43V45Z" fill="black" mask="url(#path-11-inside-3_8_571)"/>
<mask id="path-13-inside-4_8_571" fill="white">
<path d="M58.752 37.1081H57.3282L57.2343 38.495C57.194 39.1155 57.1484 39.5735 57.097 39.8691C57.0455 40.1649 56.9824 40.4122 56.9084 40.6112C56.8568 40.74 56.8011 40.8494 56.7411 40.9404C56.6812 41.0308 56.6296 41.0969 56.5867 41.1378C56.5439 41.1786 56.5166 41.2052 56.5054 41.217H58.752V37.1081ZM60.3467 42.885H60.1065L59.3522 41.4363H56.5909L55.8449 42.885H55.6047L55.7336 41.217H56.0078C56.1336 41.217 56.2568 41.1612 56.3767 41.0498C56.4965 40.9388 56.6023 40.7779 56.694 40.5672C56.774 40.374 56.8381 40.134 56.8868 39.8472C56.9353 39.5604 56.9798 39.1099 57.0197 38.495L57.0884 37.4416L56.3081 37.0641V36.8884H60.2094V37.0641L59.6094 37.1517V41.217H60.2182L60.3467 42.885Z"/>
</mask>
<path d="M58.752 37.1081V36.1081H59.752V37.1081H58.752ZM57.3282 37.1081L56.3305 37.0406L56.3936 36.1081H57.3282V37.1081ZM57.2343 38.495L56.2364 38.4302L56.2366 38.4275L57.2343 38.495ZM57.097 39.8691L58.0823 40.0402L58.0822 40.0408L57.097 39.8691ZM56.9084 40.6112L57.8456 40.9599L57.8414 40.9714L57.8368 40.9828L56.9084 40.6112ZM56.7411 40.9404L57.5761 41.4907L57.5748 41.4926L56.7411 40.9404ZM56.5867 41.1378L55.8959 40.4147L55.8978 40.4129L56.5867 41.1378ZM56.5054 41.217V42.217H54.1627L55.7832 40.5252L56.5054 41.217ZM58.752 41.217H59.752V42.217H58.752V41.217ZM60.3467 42.885L61.3438 42.8082L61.4267 43.885H60.3467V42.885ZM60.1065 42.885V43.885H59.4998L59.2195 43.3468L60.1065 42.885ZM59.3522 41.4363V40.4363H59.959L60.2392 40.9745L59.3522 41.4363ZM56.5909 41.4363L55.7018 40.9785L55.981 40.4363H56.5909V41.4363ZM55.8449 42.885L56.734 43.3428L56.4548 43.885H55.8449V42.885ZM55.6047 42.885V43.885H54.5245L54.6077 42.808L55.6047 42.885ZM55.7336 41.217L54.7366 41.1399L54.808 40.217H55.7336V41.217ZM56.3767 41.0498L55.6957 40.3174L55.6972 40.3161L56.3767 41.0498ZM56.694 40.5672L57.6179 40.9498L57.6145 40.958L57.611 40.9661L56.694 40.5672ZM56.8868 39.8472L57.8728 40.0139L57.8727 40.0146L56.8868 39.8472ZM57.0197 38.495L56.0218 38.4303L56.0218 38.4299L57.0197 38.495ZM57.0884 37.4416L57.5239 36.5414L58.1302 36.8347L58.0863 37.5067L57.0884 37.4416ZM56.3081 37.0641L55.8727 37.9643L55.3081 37.6913V37.0641H56.3081ZM56.3081 36.8884H55.3081V35.8884H56.3081V36.8884ZM60.2094 36.8884V35.8884H61.2094V36.8884H60.2094ZM60.2094 37.0641H61.2094V37.9288L60.3538 38.0537L60.2094 37.0641ZM59.6094 37.1517H58.6094V36.287L59.465 36.1622L59.6094 37.1517ZM59.6094 41.217V42.217H58.6094V41.217H59.6094ZM60.2182 41.217V40.217H61.1442L61.2153 41.1402L60.2182 41.217ZM58.752 38.1081H57.3282V36.1081H58.752V38.1081ZM58.3259 37.1757L58.232 38.5626L56.2366 38.4275L56.3305 37.0406L58.3259 37.1757ZM58.2322 38.5599C58.1915 39.1863 58.1433 39.689 58.0823 40.0402L56.1118 39.6979C56.1535 39.4581 56.1965 39.0447 56.2364 38.4302L58.2322 38.5599ZM58.0822 40.0408C58.0239 40.3751 57.9476 40.6859 57.8456 40.9599L55.9712 40.2625C56.0173 40.1385 56.067 39.9547 56.1119 39.6974L58.0822 40.0408ZM57.8368 40.9828C57.7662 41.1592 57.681 41.3315 57.5761 41.4907L55.9062 40.39C55.9211 40.3674 55.9475 40.3208 55.98 40.2396L57.8368 40.9828ZM57.5748 41.4926C57.5026 41.6016 57.4015 41.743 57.2756 41.8626L55.8978 40.4129C55.8838 40.4262 55.875 40.4359 55.8715 40.4398C55.8678 40.444 55.8672 40.445 55.8698 40.4417C55.8722 40.4386 55.8767 40.4327 55.8833 40.4234C55.8899 40.4142 55.8979 40.4025 55.9075 40.3881L57.5748 41.4926ZM57.2774 41.8609C57.2573 41.8801 57.2423 41.8945 57.2319 41.9046C57.2268 41.9097 57.2236 41.9128 57.222 41.9144C57.2197 41.9167 57.2223 41.9142 57.2275 41.9087L55.7832 40.5252C55.813 40.4942 55.8579 40.451 55.8959 40.4147L57.2774 41.8609ZM56.5054 40.217H58.752V42.217H56.5054V40.217ZM57.752 41.217V37.1081H59.752V41.217H57.752ZM60.3467 43.885H60.1065V41.885H60.3467V43.885ZM59.2195 43.3468L58.4652 41.8981L60.2392 40.9745L60.9935 42.4232L59.2195 43.3468ZM59.3522 42.4363H56.5909V40.4363H59.3522V42.4363ZM57.4799 41.894L56.734 43.3428L54.9559 42.4272L55.7018 40.9785L57.4799 41.894ZM55.8449 43.885H55.6047V41.885H55.8449V43.885ZM54.6077 42.808L54.7366 41.1399L56.7307 41.294L56.6018 42.9621L54.6077 42.808ZM55.7336 40.217H56.0078V42.217H55.7336V40.217ZM56.0078 40.217C55.9182 40.217 55.8404 40.2378 55.7818 40.2643C55.7267 40.2893 55.6989 40.3145 55.6957 40.3174L57.0576 41.7821C56.8095 42.0128 56.4543 42.217 56.0078 42.217V40.217ZM55.6972 40.3161C55.6884 40.3242 55.6942 40.321 55.7103 40.2965C55.7265 40.2719 55.7497 40.231 55.777 40.1683L57.611 40.9661C57.485 41.2557 57.3099 41.5485 57.0561 41.7835L55.6972 40.3161ZM55.7701 40.1845C55.8125 40.0821 55.8602 39.9199 55.9009 39.6798L57.8727 40.0146C57.8161 40.3481 57.7354 40.666 57.6179 40.9498L55.7701 40.1845ZM55.9008 39.6805C55.9403 39.4471 55.9823 39.0392 56.0218 38.4303L58.0176 38.5598C57.9773 39.1805 57.9303 39.6738 57.8728 40.0139L55.9008 39.6805ZM56.0218 38.4299L56.0906 37.3765L58.0863 37.5067L58.0176 38.5602L56.0218 38.4299ZM56.653 38.3418L55.8727 37.9643L56.7436 36.1639L57.5239 36.5414L56.653 38.3418ZM55.3081 37.0641V36.8884H57.3081V37.0641H55.3081ZM56.3081 35.8884H60.2094V37.8884H56.3081V35.8884ZM61.2094 36.8884V37.0641H59.2094V36.8884H61.2094ZM60.3538 38.0537L59.7537 38.1412L59.465 36.1622L60.0651 36.0746L60.3538 38.0537ZM60.6094 37.1517V41.217H58.6094V37.1517H60.6094ZM59.6094 40.217H60.2182V42.217H59.6094V40.217ZM61.2153 41.1402L61.3438 42.8082L59.3497 42.9618L59.2212 41.2938L61.2153 41.1402Z" fill="black" mask="url(#path-13-inside-4_8_571)"/>
<mask id="path-15-inside-5_8_571" fill="white">
<path d="M61.9966 41.4363V41.2605L62.5971 41.173V37.1517L61.9966 37.0641V36.8884H63.969V37.0641L63.4543 37.1517V40.5672L65.624 37.3274V37.1517L65.1092 37.0641V36.8884H67.0817V37.0641L66.4812 37.1517V41.173L67.0817 41.2605V41.4363H65.1092V41.2605L65.624 41.173V37.6961L63.4543 40.9446V41.173L63.969 41.2605V41.4363H61.9966Z"/>
</mask>
<path d="M61.9966 41.4363V42.4363H60.9966V41.4363H61.9966ZM61.9966 41.2605H60.9966V40.3957L61.8523 40.271L61.9966 41.2605ZM62.5971 41.173H63.5971V42.0378L62.7413 42.1625L62.5971 41.173ZM62.5971 37.1517L62.7413 36.1621L63.5971 36.2869V37.1517H62.5971ZM61.9966 37.0641L61.8523 38.0537L60.9966 37.9289V37.0641H61.9966ZM61.9966 36.8884H60.9966V35.8884H61.9966V36.8884ZM63.969 36.8884V35.8884H64.969V36.8884H63.969ZM63.969 37.0641H64.969V37.9084L64.1367 38.05L63.969 37.0641ZM63.4543 37.1517H62.4543V36.3074L63.2866 36.1658L63.4543 37.1517ZM63.4543 40.5672L64.2852 41.1236L62.4543 43.8575V40.5672H63.4543ZM65.624 37.3274H66.624V37.6314L66.4549 37.8839L65.624 37.3274ZM65.624 37.1517L65.7916 36.1658L66.624 36.3074V37.1517H65.624ZM65.1092 37.0641L64.9415 38.05L64.1092 37.9084V37.0641H65.1092ZM65.1092 36.8884H64.1092V35.8884H65.1092V36.8884ZM67.0817 36.8884V35.8884H68.0817V36.8884H67.0817ZM67.0817 37.0641H68.0817V37.9289L67.2259 38.0537L67.0817 37.0641ZM66.4812 37.1517H65.4812V36.2869L66.3369 36.1621L66.4812 37.1517ZM66.4812 41.173L66.3369 42.1625L65.4812 42.0378V41.173H66.4812ZM67.0817 41.2605L67.2259 40.271L68.0817 40.3957V41.2605H67.0817ZM67.0817 41.4363H68.0817V42.4363H67.0817V41.4363ZM65.1092 41.4363V42.4363H64.1092V41.4363H65.1092ZM65.1092 41.2605H64.1092V40.4162L64.9415 40.2747L65.1092 41.2605ZM65.624 41.173H66.624V42.0173L65.7916 42.1588L65.624 41.173ZM65.624 37.6961L64.7924 37.1407L66.624 34.3984V37.6961H65.624ZM63.4543 40.9446H62.4543V40.6414L62.6227 40.3892L63.4543 40.9446ZM63.4543 41.173L63.2866 42.1588L62.4543 42.0173V41.173H63.4543ZM63.969 41.2605L64.1367 40.2747L64.969 40.4162V41.2605H63.969ZM63.969 41.4363H64.969V42.4363H63.969V41.4363ZM60.9966 41.4363V41.2605H62.9966V41.4363H60.9966ZM61.8523 40.271L62.4528 40.1834L62.7413 42.1625L62.1408 42.2501L61.8523 40.271ZM61.5971 41.173V37.1517H63.5971V41.173H61.5971ZM62.4528 38.1412L61.8523 38.0537L62.1408 36.0746L62.7413 36.1621L62.4528 38.1412ZM60.9966 37.0641V36.8884H62.9966V37.0641H60.9966ZM61.9966 35.8884H63.969V37.8884H61.9966V35.8884ZM64.969 36.8884V37.0641H62.969V36.8884H64.969ZM64.1367 38.05L63.6219 38.1375L63.2866 36.1658L63.8014 36.0783L64.1367 38.05ZM64.4543 37.1517V40.5672H62.4543V37.1517H64.4543ZM62.6234 40.0107L64.7931 36.771L66.4549 37.8839L64.2852 41.1236L62.6234 40.0107ZM64.624 37.3274V37.1517H66.624V37.3274H64.624ZM65.4563 38.1375L64.9415 38.05L65.2769 36.0783L65.7916 36.1658L65.4563 38.1375ZM64.1092 37.0641V36.8884H66.1092V37.0641H64.1092ZM65.1092 35.8884H67.0817V37.8884H65.1092V35.8884ZM68.0817 36.8884V37.0641H66.0817V36.8884H68.0817ZM67.2259 38.0537L66.6254 38.1412L66.3369 36.1621L66.9374 36.0746L67.2259 38.0537ZM67.4812 37.1517V41.173H65.4812V37.1517H67.4812ZM66.6254 40.1834L67.2259 40.271L66.9374 42.2501L66.3369 42.1625L66.6254 40.1834ZM68.0817 41.2605V41.4363H66.0817V41.2605H68.0817ZM67.0817 42.4363H65.1092V40.4363H67.0817V42.4363ZM64.1092 41.4363V41.2605H66.1092V41.4363H64.1092ZM64.9415 40.2747L65.4563 40.1871L65.7916 42.1588L65.2769 42.2464L64.9415 40.2747ZM64.624 41.173V37.6961H66.624V41.173H64.624ZM66.4555 38.2515L64.2859 41.5001L62.6227 40.3892L64.7924 37.1407L66.4555 38.2515ZM64.4543 40.9446V41.173H62.4543V40.9446H64.4543ZM63.6219 40.1871L64.1367 40.2747L63.8014 42.2464L63.2866 42.1588L63.6219 40.1871ZM64.969 41.2605V41.4363H62.969V41.2605H64.969ZM63.969 42.4363H61.9966V40.4363H63.969V42.4363Z" fill="black" mask="url(#path-15-inside-5_8_571)"/>
<mask id="path-17-inside-6_8_571" fill="white">
<path d="M72.0873 39.1276V37.1085H71.367C71.0355 37.1085 70.7909 37.1845 70.6336 37.3366C70.4765 37.4889 70.398 37.7317 70.398 38.0654V38.1793C70.398 38.5071 70.478 38.7472 70.638 38.8993C70.798 39.0516 71.0181 39.1276 71.2982 39.1276H72.0873ZM69.0946 41.4233C68.9458 41.3563 68.8174 41.2582 68.7085 41.1293L68.8374 40.9976C68.9403 41.1029 69.0401 41.1555 69.1373 41.1555C69.2233 41.1555 69.2876 41.1237 69.3306 41.059C69.3733 40.9949 69.4145 40.866 69.4549 40.6729L69.5492 40.1637C69.6005 39.8769 69.6948 39.6632 69.8319 39.5227C69.9692 39.3821 70.1922 39.2887 70.5009 39.2416V39.1978C70.1979 39.145 69.9507 39.031 69.759 38.8553C69.5677 38.6798 69.4718 38.4223 69.4718 38.0827C69.4718 37.6906 69.6005 37.3937 69.8577 37.1918C70.1149 36.9898 70.5322 36.8887 71.1098 36.8887H73.5622V37.0733L72.9447 37.1611V41.1645L73.5622 41.2609V41.4366H71.4699V41.2609L72.0873 41.1645V39.3469H71.2982C71.0525 39.3469 70.8623 39.4026 70.7281 39.5141C70.5937 39.6251 70.5064 39.8094 70.4665 40.0671L70.3381 40.8135C70.2922 41.0709 70.2094 41.2537 70.0893 41.362C69.9692 41.4703 69.7834 41.5244 69.5318 41.5244C69.389 41.5244 69.2433 41.4908 69.0946 41.4233Z"/>
</mask>
<path d="M72.0873 39.1276H73.0873V40.1276H72.0873V39.1276ZM72.0873 37.1085V36.1085H73.0873V37.1085H72.0873ZM70.6336 37.3366L69.9376 36.6186L69.9386 36.6176L70.6336 37.3366ZM70.638 38.8993L71.3269 38.1745L71.3275 38.175L70.638 38.8993ZM68.7085 41.1293L67.9447 41.7748L67.3577 41.0801L67.9937 40.43L68.7085 41.1293ZM68.8374 40.9976L68.1226 40.2983L68.838 39.567L69.5528 40.2989L68.8374 40.9976ZM69.3306 41.059L68.4973 40.506L68.4987 40.504L69.3306 41.059ZM69.4549 40.6729L70.4381 40.855L70.4361 40.8662L70.4338 40.8773L69.4549 40.6729ZM69.5492 40.1637L70.5335 40.3399L70.5325 40.3458L69.5492 40.1637ZM69.8319 39.5227L69.1159 38.8245L69.1165 38.824L69.8319 39.5227ZM70.5009 39.2416H71.5009V40.1004L70.6519 40.2301L70.5009 39.2416ZM70.5009 39.1978L70.6726 38.2126L71.5009 38.357V39.1978H70.5009ZM69.759 38.8553L69.0832 39.5924L69.0828 39.5921L69.759 38.8553ZM73.5622 36.8887V35.8887H74.5622V36.8887H73.5622ZM73.5622 37.0733H74.5622V37.9412L73.7029 38.0634L73.5622 37.0733ZM72.9447 37.1611H71.9447V36.2932L72.804 36.171L72.9447 37.1611ZM72.9447 41.1645L72.7906 42.1526L71.9447 42.0206V41.1645H72.9447ZM73.5622 41.2609L73.7164 40.2728L74.5622 40.4048V41.2609H73.5622ZM73.5622 41.4366H74.5622V42.4366H73.5622V41.4366ZM71.4699 41.4366V42.4366H70.4699V41.4366H71.4699ZM71.4699 41.2609H70.4699V40.4048L71.3157 40.2728L71.4699 41.2609ZM72.0873 41.1645H73.0873V42.0206L72.2415 42.1526L72.0873 41.1645ZM72.0873 39.3469V38.3469H73.0873V39.3469H72.0873ZM70.7281 39.5141L71.367 40.2834L71.3649 40.2852L70.7281 39.5141ZM70.4665 40.0671L71.4548 40.2201L71.4535 40.2284L71.4521 40.2367L70.4665 40.0671ZM70.3381 40.8135L71.3236 40.9831L71.3226 40.9888L70.3381 40.8135ZM71.0873 39.1276V37.1085H73.0873V39.1276H71.0873ZM72.0873 38.1085H71.367V36.1085H72.0873V38.1085ZM71.367 38.1085C71.3219 38.1085 71.2886 38.1111 71.2655 38.1142C71.2542 38.1157 71.2458 38.1172 71.2402 38.1184C71.2346 38.1196 71.2319 38.1204 71.2319 38.1204C71.232 38.1204 71.2432 38.1169 71.2616 38.1065C71.2804 38.0958 71.3041 38.0793 71.3285 38.0557L69.9386 36.6176C70.3591 36.2112 70.9071 36.1085 71.367 36.1085V38.1085ZM71.3296 38.0547C71.3566 38.0285 71.3761 38.0022 71.3894 37.9799C71.4023 37.9582 71.4074 37.9436 71.4084 37.9405C71.4093 37.9378 71.4065 37.9456 71.4036 37.967C71.4007 37.9884 71.398 38.0206 71.398 38.0654H69.398C69.398 37.6013 69.5044 37.0385 69.9376 36.6186L71.3296 38.0547ZM71.398 38.0654V38.1793H69.398V38.0654H71.398ZM71.398 38.1793C71.398 38.2211 71.4006 38.2505 71.4032 38.2692C71.4059 38.288 71.4082 38.2936 71.4067 38.289C71.4051 38.2841 71.3993 38.2686 71.3859 38.2467C71.3723 38.2244 71.3528 38.1991 71.3269 38.1745L69.949 39.6241C69.5111 39.2078 69.398 38.6481 69.398 38.1793H71.398ZM71.3275 38.175C71.3141 38.1623 71.2993 38.1511 71.2842 38.142C71.2693 38.133 71.2571 38.128 71.2498 38.1254C71.2358 38.1206 71.2474 38.1276 71.2982 38.1276V40.1276C70.8337 40.1276 70.3409 39.9971 69.9485 39.6236L71.3275 38.175ZM71.2982 38.1276H72.0873V40.1276H71.2982V38.1276ZM68.6838 42.3351C68.3929 42.204 68.1455 42.0124 67.9447 41.7748L69.4723 40.4839C69.4893 40.504 69.4988 40.5086 69.5053 40.5116L68.6838 42.3351ZM67.9937 40.43L68.1226 40.2983L69.5522 41.6969L69.4233 41.8287L67.9937 40.43ZM69.5528 40.2989C69.5523 40.2983 69.5211 40.2658 69.4555 40.2313C69.3851 40.1942 69.2755 40.1555 69.1373 40.1555V42.1555C68.6591 42.1555 68.3173 41.8962 68.122 41.6963L69.5528 40.2989ZM69.1373 40.1555C69.0566 40.1555 68.9358 40.1709 68.804 40.2365C68.6677 40.3045 68.5652 40.4038 68.4974 40.506L70.1638 41.6119C69.9111 41.9928 69.5115 42.1555 69.1373 42.1555V40.1555ZM68.4987 40.504C68.4821 40.5289 68.4701 40.55 68.4622 40.565C68.4542 40.5802 68.4488 40.592 68.4456 40.5993C68.4396 40.613 68.4387 40.6174 68.4416 40.6083C68.4443 40.6 68.4489 40.5844 68.4551 40.5599C68.4612 40.5358 68.4682 40.5055 68.476 40.4685L70.4338 40.8773C70.3965 41.0559 70.3266 41.3679 70.1624 41.6139L68.4987 40.504ZM68.4716 40.4908L68.5659 39.9816L70.5325 40.3458L70.4381 40.855L68.4716 40.4908ZM68.5648 39.9874C68.6354 39.5933 68.7869 39.1619 69.1159 38.8245L70.5479 40.2208C70.5768 40.1911 70.5811 40.1743 70.5733 40.192C70.565 40.2108 70.5485 40.2565 70.5335 40.3399L68.5648 39.9874ZM69.1165 38.824C69.4722 38.4597 69.9456 38.3148 70.3499 38.253L70.6519 40.2301C70.5562 40.2447 70.5066 40.2618 70.4893 40.2691C70.473 40.2759 70.5035 40.2663 70.5473 40.2214L69.1165 38.824ZM69.5009 39.2416V39.1978H71.5009V39.2416H69.5009ZM70.3293 40.1829C69.8736 40.1035 69.4403 39.9197 69.0832 39.5924L70.4347 38.1182C70.4611 38.1424 70.5223 38.1864 70.6726 38.2126L70.3293 40.1829ZM69.0828 39.5921C68.6269 39.1737 68.4718 38.6122 68.4718 38.0827H70.4718C70.4718 38.1605 70.483 38.1875 70.481 38.182C70.4797 38.1787 70.4756 38.1689 70.4669 38.1557C70.458 38.1423 70.447 38.1294 70.4351 38.1185L69.0828 39.5921ZM68.4718 38.0827C68.4718 37.4515 68.6927 36.8351 69.2401 36.4053L70.4753 37.9783C70.4734 37.9798 70.4759 37.978 70.4799 37.9728C70.4817 37.9705 70.4833 37.9682 70.4844 37.9662C70.4856 37.9642 70.486 37.9632 70.4859 37.9634C70.4858 37.9636 70.4824 37.9714 70.479 37.99C70.4754 38.009 70.4718 38.0392 70.4718 38.0827H68.4718ZM69.2401 36.4053C69.7645 35.9935 70.4611 35.8887 71.1098 35.8887V37.8887C70.875 37.8887 70.7093 37.9097 70.5988 37.9365C70.4878 37.9633 70.4617 37.9889 70.4753 37.9783L69.2401 36.4053ZM71.1098 35.8887H73.5622V37.8887H71.1098V35.8887ZM74.5622 36.8887V37.0733H72.5622V36.8887H74.5622ZM73.7029 38.0634L73.0855 38.1511L72.804 36.171L73.4215 36.0833L73.7029 38.0634ZM73.9447 37.1611V41.1645H71.9447V37.1611H73.9447ZM73.0989 40.1765L73.7164 40.2728L73.408 42.2489L72.7906 42.1526L73.0989 40.1765ZM74.5622 41.2609V41.4366H72.5622V41.2609H74.5622ZM73.5622 42.4366H71.4699V40.4366H73.5622V42.4366ZM70.4699 41.4366V41.2609H72.4699V41.4366H70.4699ZM71.3157 40.2728L71.9332 40.1765L72.2415 42.1526L71.624 42.2489L71.3157 40.2728ZM71.0873 41.1645V39.3469H73.0873V41.1645H71.0873ZM72.0873 40.3469H71.2982V38.3469H72.0873V40.3469ZM71.2982 40.3469C71.2487 40.3469 71.2375 40.3528 71.2527 40.3483C71.2708 40.343 71.3158 40.3259 71.367 40.2834L70.0892 38.7448C70.4641 38.4335 70.9134 38.3469 71.2982 38.3469V40.3469ZM71.3649 40.2852C71.4284 40.2327 71.4572 40.1815 71.4658 40.1633C71.473 40.1482 71.4639 40.1614 71.4548 40.2201L69.4783 39.9141C69.5377 39.5306 69.6936 39.0715 70.0914 38.743L71.3649 40.2852ZM71.4521 40.2367L71.3236 40.9831L69.3526 40.6438L69.481 39.8975L71.4521 40.2367ZM71.3226 40.9888C71.2601 41.3398 71.1187 41.7802 70.759 42.1046L69.4196 40.6193C69.356 40.6767 69.3329 40.7261 69.3308 40.7306C69.3296 40.7334 69.3323 40.728 69.3369 40.7119C69.3416 40.6959 69.3476 40.6718 69.3536 40.6382L71.3226 40.9888ZM70.759 42.1046C70.3764 42.4496 69.899 42.5244 69.5318 42.5244V40.5244C69.5896 40.5244 69.6006 40.5178 69.5801 40.5237C69.5564 40.5306 69.4914 40.5546 69.4196 40.6193L70.759 42.1046ZM69.5318 42.5244C69.2278 42.5244 68.9418 42.4521 68.6815 42.334L69.5076 40.5126C69.527 40.5214 69.5378 40.5242 69.5406 40.5249C69.543 40.5254 69.5395 40.5244 69.5318 40.5244V42.5244Z" fill="black" mask="url(#path-17-inside-6_8_571)"/>
<mask id="path-19-inside-7_8_571" fill="white">
<path d="M78.3379 41.4363V41.2605L78.9895 40.9972V37.1431L78.3892 37.0641V36.8884H80.0528L81.4078 40.1721L82.7537 36.8884H84.3318V37.0641L83.7313 37.1517V41.173L84.3318 41.2605V41.4363H82.3593V41.2605L82.8741 41.173V37.1783L81.0988 41.4363H80.9959L79.2039 37.1783V40.9972L79.8555 41.2605V41.4363H78.3379Z"/>
</mask>
<path d="M78.3379 41.4363V42.4363H77.3379V41.4363H78.3379ZM78.3379 41.2605H77.3379V40.586L77.9632 40.3334L78.3379 41.2605ZM78.9895 40.9972H79.9895V41.6717L79.3642 41.9244L78.9895 40.9972ZM78.9895 37.1431L79.1199 36.1517L79.9895 36.2661V37.1431H78.9895ZM78.3892 37.0641L78.2588 38.0556L77.3892 37.9412V37.0641H78.3892ZM78.3892 36.8884H77.3892V35.8884H78.3892V36.8884ZM80.0528 36.8884V35.8884H80.7219L80.9771 36.5069L80.0528 36.8884ZM81.4078 40.1721L82.333 40.5514L81.4109 42.8012L80.4834 40.5536L81.4078 40.1721ZM82.7537 36.8884L81.8284 36.5091L82.0829 35.8884H82.7537V36.8884ZM84.3318 36.8884V35.8884H85.3318V36.8884H84.3318ZM84.3318 37.0641H85.3318V37.9289L84.476 38.0537L84.3318 37.0641ZM83.7313 37.1517H82.7313V36.2869L83.587 36.1621L83.7313 37.1517ZM83.7313 41.173L83.587 42.1625L82.7313 42.0378V41.173H83.7313ZM84.3318 41.2605L84.476 40.271L85.3318 40.3957V41.2605H84.3318ZM84.3318 41.4363H85.3318V42.4363H84.3318V41.4363ZM82.3593 41.4363V42.4363H81.3593V41.4363H82.3593ZM82.3593 41.2605H81.3593V40.4162L82.1916 40.2747L82.3593 41.2605ZM82.8741 41.173H83.8741V42.0173L83.0417 42.1588L82.8741 41.173ZM82.8741 37.1783L81.9511 36.7935L83.8741 37.1783H82.8741ZM81.0988 41.4363L82.0218 41.8211L81.7653 42.4363H81.0988V41.4363ZM80.9959 41.4363V42.4363H80.3318L80.0742 41.8242L80.9959 41.4363ZM79.2039 37.1783H78.2039L80.1256 36.7904L79.2039 37.1783ZM79.2039 40.9972L78.8293 41.9244L78.2039 41.6717V40.9972H79.2039ZM79.8555 41.2605L80.2302 40.3334L80.8555 40.586V41.2605H79.8555ZM79.8555 41.4363H80.8555V42.4363H79.8555V41.4363ZM77.3379 41.4363V41.2605H79.3379V41.4363H77.3379ZM77.9632 40.3334L78.6149 40.07L79.3642 41.9244L78.7125 42.1877L77.9632 40.3334ZM77.9895 40.9972V37.1431H79.9895V40.9972H77.9895ZM78.8591 38.1346L78.2588 38.0556L78.5197 36.0727L79.1199 36.1517L78.8591 38.1346ZM77.3892 37.0641V36.8884H79.3892V37.0641H77.3892ZM78.3892 35.8884H80.0528V37.8884H78.3892V35.8884ZM80.9771 36.5069L82.3322 39.7907L80.4834 40.5536L79.1284 37.2698L80.9771 36.5069ZM80.4825 39.7928L81.8284 36.5091L83.679 37.2677L82.333 40.5514L80.4825 39.7928ZM82.7537 35.8884H84.3318V37.8884H82.7537V35.8884ZM85.3318 36.8884V37.0641H83.3318V36.8884H85.3318ZM84.476 38.0537L83.8755 38.1412L83.587 36.1621L84.1875 36.0746L84.476 38.0537ZM84.7313 37.1517V41.173H82.7313V37.1517H84.7313ZM83.8755 40.1834L84.476 40.271L84.1875 42.2501L83.587 42.1625L83.8755 40.1834ZM85.3318 41.2605V41.4363H83.3318V41.2605H85.3318ZM84.3318 42.4363H82.3593V40.4363H84.3318V42.4363ZM81.3593 41.4363V41.2605H83.3593V41.4363H81.3593ZM82.1916 40.2747L82.7064 40.1871L83.0417 42.1588L82.5269 42.2464L82.1916 40.2747ZM81.8741 41.173V37.1783H83.8741V41.173H81.8741ZM83.797 37.5631L82.0218 41.8211L80.1758 41.0515L81.9511 36.7935L83.797 37.5631ZM81.0988 42.4363H80.9959V40.4363H81.0988V42.4363ZM80.0742 41.8242L78.2822 37.5662L80.1256 36.7904L81.9176 41.0484L80.0742 41.8242ZM80.2039 37.1783V40.9972H78.2039V37.1783H80.2039ZM79.5786 40.07L80.2302 40.3334L79.4809 42.1877L78.8293 41.9244L79.5786 40.07ZM80.8555 41.2605V41.4363H78.8555V41.2605H80.8555ZM79.8555 42.4363H78.3379V40.4363H79.8555V42.4363Z" fill="black" mask="url(#path-19-inside-7_8_571)"/>
<mask id="path-21-inside-8_8_571" fill="white">
<path d="M88.2873 40.9976C88.4502 40.9039 88.5888 40.7679 88.7031 40.5894C88.8175 40.4107 88.886 40.1959 88.9089 39.9441V39.031H88.3342C87.8655 39.031 87.5156 39.138 87.284 39.3517C87.0526 39.5651 86.9367 39.8652 86.9367 40.2512C86.9367 40.5732 87.011 40.8017 87.1595 40.9362C87.3082 41.0709 87.5255 41.1381 87.8115 41.1381C87.9658 41.1381 88.1242 41.0914 88.2873 40.9976ZM86.4396 41.2302C86.2051 41.0344 86.0876 40.7431 86.0876 40.3566C86.0876 39.8065 86.3135 39.416 86.7653 39.1849C87.2166 38.9534 87.7397 38.8379 88.3342 38.8379H88.9089V38.1619C88.9089 37.8576 88.8759 37.6218 88.8104 37.4551C88.7446 37.2883 88.6432 37.1715 88.5059 37.104C88.3686 37.0368 88.1829 37.0029 87.9484 37.0029C87.6798 37.0029 87.4797 37.0571 87.3483 37.1654C87.2166 37.2737 87.1511 37.4187 87.1511 37.5999C87.1511 37.7698 87.2311 37.881 87.3911 37.9336C87.3911 38.0798 87.3369 38.2086 87.2285 38.3201C87.1196 38.4311 86.9909 38.4866 86.8424 38.4866C86.6822 38.4866 86.5535 38.4415 86.4565 38.3508C86.3594 38.2601 86.3109 38.1211 86.3109 37.9336C86.3109 37.5943 86.4766 37.3222 86.808 37.1173C87.1397 36.9122 87.5539 36.81 88.0513 36.81C89.1945 36.81 89.7666 37.3192 89.7666 38.3375V40.8482C89.7666 40.9771 89.7935 41.0752 89.8479 41.1427C89.9019 41.2097 89.9808 41.2435 90.0837 41.2435C90.1809 41.2435 90.258 41.2097 90.3153 41.1427C90.3722 41.0752 90.401 40.9831 90.401 40.866H90.5808C90.5808 41.0709 90.5165 41.2318 90.388 41.3487C90.2593 41.4658 90.0806 41.5244 89.8521 41.5244C89.589 41.5244 89.3677 41.4468 89.1875 41.2918C89.0077 41.1366 88.9145 40.8954 88.9089 40.5675C88.7717 40.866 88.5614 41.1002 88.2787 41.2699C87.9958 41.4396 87.6826 41.5244 87.3397 41.5244C86.9739 41.5244 86.6738 41.4265 86.4396 41.2302Z"/>
</mask>
<path d="M88.7031 40.5894L89.5454 41.1285L89.5451 41.129L88.7031 40.5894ZM88.9089 39.9441H89.9089V39.9896L89.9048 40.0348L88.9089 39.9441ZM88.9089 39.031V38.031H89.9089V39.031H88.9089ZM87.284 39.3517L87.9621 40.0867L87.962 40.0867L87.284 39.3517ZM87.1595 40.9362L87.8307 40.1949L87.8307 40.195L87.1595 40.9362ZM88.2873 40.9976L87.7885 40.1309L87.7888 40.1307L88.2873 40.9976ZM86.7653 39.1849L87.2217 40.0747L87.2206 40.0752L86.7653 39.1849ZM88.9089 38.8379H89.9089V39.8379H88.9089V38.8379ZM88.8104 37.4551L89.7405 37.0876L89.7413 37.0897L88.8104 37.4551ZM88.5059 37.104L88.9457 36.2059L88.9469 36.2065L88.5059 37.104ZM87.3483 37.1654L87.9845 37.9369L87.9833 37.9379L87.3483 37.1654ZM87.3911 37.9336L87.7033 36.9836L88.3911 37.2096V37.9336H87.3911ZM87.2285 38.3201L87.9453 39.0174L87.9424 39.0203L87.2285 38.3201ZM86.4565 38.3508L87.1389 37.6197L87.1397 37.6205L86.4565 38.3508ZM86.808 37.1173L87.334 37.9678L87.3338 37.9679L86.808 37.1173ZM89.8479 41.1427L90.6262 40.5147L90.6266 40.5153L89.8479 41.1427ZM90.3153 41.1427L91.08 41.7871L91.0754 41.7925L90.3153 41.1427ZM90.401 40.866H89.401V39.866H90.401V40.866ZM90.5808 40.866V39.866H91.5808V40.866H90.5808ZM90.388 41.3487L89.715 40.609L89.7151 40.6089L90.388 41.3487ZM89.1875 41.2918L88.5355 42.05L88.534 42.0488L89.1875 41.2918ZM88.9089 40.5675L88.0004 40.1497L89.9088 40.5507L88.9089 40.5675ZM88.2787 41.2699L88.7933 42.1274L88.793 42.1275L88.2787 41.2699ZM87.7888 40.1307C87.7956 40.1268 87.8221 40.1108 87.8612 40.0499L89.5451 41.129C89.3554 41.425 89.1047 41.6811 88.7858 41.8645L87.7888 40.1307ZM87.8609 40.0504C87.8738 40.0302 87.9019 39.976 87.9131 39.8535L89.9048 40.0348C89.8701 40.4159 89.7612 40.7913 89.5454 41.1285L87.8609 40.0504ZM87.9089 39.9441V39.031H89.9089V39.9441H87.9089ZM88.9089 40.031H88.3342V38.031H88.9089V40.031ZM88.3342 40.031C87.9972 40.031 87.9367 40.1101 87.9621 40.0867L86.6059 38.6167C87.0945 38.1659 87.7339 38.031 88.3342 38.031V40.031ZM87.962 40.0867C87.9613 40.0873 87.9604 40.0866 87.9565 40.0969C87.9508 40.1115 87.9367 40.1574 87.9367 40.2512H85.9367C85.9367 39.6538 86.1243 39.0609 86.606 38.6166L87.962 40.0867ZM87.9367 40.2512C87.9367 40.2939 87.9392 40.3233 87.9416 40.3415C87.9441 40.3597 87.946 40.3629 87.9434 40.3548C87.9373 40.3362 87.9094 40.2662 87.8307 40.1949L86.4883 41.6775C86.032 41.2644 85.9367 40.688 85.9367 40.2512H87.9367ZM87.8307 40.195C87.8083 40.1746 87.7861 40.1596 87.767 40.149C87.7482 40.1386 87.7348 40.134 87.7298 40.1324C87.7217 40.1299 87.7442 40.1381 87.8115 40.1381V42.1381C87.3825 42.1381 86.8862 42.0379 86.4883 41.6775L87.8307 40.195ZM87.8115 40.1381C87.7994 40.1381 87.7888 40.1391 87.7802 40.1404C87.7715 40.1417 87.7657 40.1432 87.7629 40.144C87.7575 40.1456 87.7659 40.1439 87.7885 40.1309L88.7862 41.8643C88.5039 42.0267 88.175 42.1381 87.8115 42.1381V40.1381ZM85.7985 41.9977C85.2787 41.5635 85.0876 40.9547 85.0876 40.3566H87.0876C87.0876 40.4503 87.102 40.4882 87.1032 40.4912C87.1037 40.4922 87.1018 40.4875 87.0963 40.4799C87.0907 40.4721 87.0848 40.4662 87.0806 40.4627L85.7985 41.9977ZM85.0876 40.3566C85.0876 39.9442 85.173 39.528 85.3914 39.1505C85.6124 38.7683 85.9347 38.4865 86.3099 38.2946L87.2206 40.0752C87.1441 40.1144 87.1276 40.1434 87.1227 40.1518C87.1152 40.1648 87.0876 40.2189 87.0876 40.3566H85.0876ZM86.3089 38.2951C86.9241 37.9796 87.6086 37.8379 88.3342 37.8379V39.8379C87.8708 39.8379 87.509 39.9273 87.2217 40.0747L86.3089 38.2951ZM88.3342 37.8379H88.9089V39.8379H88.3342V37.8379ZM87.9089 38.8379V38.1619H89.9089V38.8379H87.9089ZM87.9089 38.1619C87.9089 38.0442 87.9024 37.9567 87.8938 37.8951C87.885 37.8316 87.8761 37.8115 87.8796 37.8204L89.7413 37.0897C89.8733 37.4261 89.9089 37.8065 89.9089 38.1619H87.9089ZM87.8804 37.8226C87.8826 37.828 87.8955 37.8584 87.9295 37.8976C87.9653 37.9388 88.0121 37.9756 88.0649 38.0015L88.9469 36.2065C89.3452 36.4022 89.5999 36.7319 89.7405 37.0876L87.8804 37.8226ZM88.0661 38.0021C88.0967 38.0171 88.1074 38.0162 88.085 38.0122C88.0629 38.0082 88.0192 38.0029 87.9484 38.0029V36.0029C88.2626 36.0029 88.6185 36.0457 88.9457 36.2059L88.0661 38.0021ZM87.9484 38.0029C87.9144 38.0029 87.8902 38.0046 87.8745 38.0065C87.8588 38.0083 87.8541 38.0099 87.8582 38.0088C87.8662 38.0066 87.9192 37.9907 87.9845 37.9369L86.7121 36.3938C87.1006 36.0736 87.5742 36.0029 87.9484 36.0029V38.0029ZM87.9833 37.9379C88.0274 37.9016 88.0765 37.8445 88.1111 37.7681C88.1449 37.6936 88.1511 37.6314 88.1511 37.5999H86.1511C86.1511 37.1435 86.3326 36.7057 86.7134 36.3928L87.9833 37.9379ZM88.1511 37.5999C88.1511 37.5263 88.132 37.3785 88.023 37.2269C87.9134 37.0745 87.7775 37.008 87.7033 36.9836L87.0789 38.8836C86.8447 38.8067 86.5888 38.6582 86.3992 38.3946C86.2102 38.1317 86.1511 37.8434 86.1511 37.5999H88.1511ZM88.3911 37.9336C88.3911 38.358 88.2225 38.7323 87.9453 39.0174L86.5116 37.6228C86.4886 37.6465 86.4552 37.6892 86.4287 37.752C86.4018 37.816 86.3911 37.8798 86.3911 37.9336H88.3911ZM87.9424 39.0203C87.6554 39.313 87.2732 39.4866 86.8424 39.4866V37.4866C86.7887 37.4866 86.7224 37.4974 86.6543 37.5267C86.5871 37.5557 86.5409 37.593 86.5145 37.6199L87.9424 39.0203ZM86.8424 39.4866C86.4854 39.4866 86.0933 39.3804 85.7734 39.0811L87.1397 37.6205C87.084 37.5685 87.0199 37.5313 86.9575 37.5093C86.8982 37.4885 86.8557 37.4866 86.8424 37.4866V39.4866ZM85.7742 39.0818C85.4024 38.7349 85.3109 38.2815 85.3109 37.9336H87.3109C87.3109 37.9607 87.3163 37.7853 87.1388 37.6197L85.7742 39.0818ZM85.3109 37.9336C85.3109 37.1911 85.7076 36.6219 86.2822 36.2667L87.3338 37.9679C87.3032 37.9868 87.2881 38.0001 87.2828 38.0052C87.2781 38.0097 87.2822 38.0067 87.2892 37.9952C87.2966 37.9832 87.303 37.9684 87.3071 37.9533C87.3111 37.9386 87.3109 37.9309 87.3109 37.9336H85.3109ZM86.2821 36.2668C86.8101 35.9402 87.4192 35.81 88.0513 35.81V37.81C87.6887 37.81 87.4692 37.8842 87.334 37.9678L86.2821 36.2668ZM88.0513 35.81C88.7504 35.81 89.4615 35.9632 90.0027 36.4451C90.5659 36.9466 90.7666 37.6421 90.7666 38.3375H88.7666C88.7666 38.0146 88.6813 37.9464 88.6727 37.9387C88.642 37.9114 88.4954 37.81 88.0513 37.81V35.81ZM90.7666 38.3375V40.8482H88.7666V38.3375H90.7666ZM90.7666 40.8482C90.7666 40.846 90.7667 40.81 90.7509 40.7528C90.7344 40.693 90.6991 40.6051 90.6262 40.5147L89.0696 41.7706C88.8154 41.4555 88.7666 41.096 88.7666 40.8482H90.7666ZM90.6266 40.5153C90.5516 40.4222 90.4529 40.3468 90.341 40.2989C90.2338 40.253 90.1412 40.2435 90.0837 40.2435V42.2435C89.7428 42.2435 89.3501 42.1187 89.0692 41.77L90.6266 40.5153ZM90.0837 40.2435C90.015 40.2435 89.9195 40.2559 89.8146 40.3017C89.7073 40.3484 89.6197 40.4174 89.5552 40.4928L91.0754 41.7925C90.8091 42.1039 90.4428 42.2435 90.0837 42.2435V40.2435ZM89.5506 40.4982C89.4139 40.6605 89.401 40.8212 89.401 40.866H91.401C91.401 41.1451 91.3304 41.4899 91.08 41.7871L89.5506 40.4982ZM90.401 39.866H90.5808V41.866H90.401V39.866ZM91.5808 40.866C91.5808 41.2977 91.4351 41.748 91.0609 42.0884L89.7151 40.6089C89.6677 40.6521 89.6283 40.7086 89.604 40.7692C89.5813 40.8262 89.5808 40.864 89.5808 40.866H91.5808ZM91.061 42.0883C90.6968 42.4197 90.25 42.5244 89.8521 42.5244V40.5244C89.8824 40.5244 89.876 40.5204 89.8458 40.5303C89.8121 40.5413 89.7631 40.5653 89.715 40.609L91.061 42.0883ZM89.8521 42.5244C89.3763 42.5244 88.9163 42.3775 88.5355 42.05L89.8395 40.5336C89.8389 40.5331 89.8362 40.5309 89.8315 40.5282C89.8269 40.5255 89.8225 40.5236 89.8192 40.5224C89.8161 40.5213 89.8162 40.5217 89.8207 40.5224C89.8254 40.5232 89.8355 40.5244 89.8521 40.5244V42.5244ZM88.534 42.0488C88.0672 41.6457 87.9175 41.0865 87.9091 40.5843L89.9088 40.5507C89.9101 40.627 89.9212 40.6483 89.9161 40.6351C89.9131 40.6275 89.9061 40.6119 89.8926 40.5923C89.8789 40.5724 89.8614 40.5525 89.8409 40.5348L88.534 42.0488ZM89.8175 40.9854C89.5957 41.4676 89.2477 41.8546 88.7933 42.1274L87.7641 40.4125C87.8751 40.3459 87.9476 40.2645 88.0004 40.1497L89.8175 40.9854ZM88.793 42.1275C88.3483 42.3942 87.8562 42.5244 87.3397 42.5244V40.5244C87.5091 40.5244 87.6432 40.485 87.7644 40.4123L88.793 42.1275ZM87.3397 42.5244C86.788 42.5244 86.2458 42.3725 85.7973 41.9967L87.0818 40.4637C87.1018 40.4805 87.1599 40.5244 87.3397 40.5244V42.5244Z" fill="black" mask="url(#path-21-inside-8_8_571)"/>
<mask id="path-23-inside-9_8_571" fill="white">
<path d="M92.2236 41.4363V41.2605L92.8239 41.173V37.1517L92.2236 37.0641V36.8884H94.1957V37.0641L93.6813 37.1517V39.0221H95.7992V37.1517L95.2849 37.0641V36.8884H97.2569V37.0641L96.6569 37.1517V41.173L97.2569 41.2605V41.4363H95.2849V41.2605L95.7992 41.173V39.2414H93.6813V41.173L94.1957 41.2605V41.4363H92.2236Z"/>
</mask>
<path d="M92.2236 41.4363V42.4363H91.2236V41.4363H92.2236ZM92.2236 41.2605H91.2236V40.3958L92.0793 40.271L92.2236 41.2605ZM92.8239 41.173H93.8239V42.0377L92.9682 42.1625L92.8239 41.173ZM92.8239 37.1517L92.9682 36.1622L93.8239 36.2869V37.1517H92.8239ZM92.2236 37.0641L92.0793 38.0537L91.2236 37.9289V37.0641H92.2236ZM92.2236 36.8884H91.2236V35.8884H92.2236V36.8884ZM94.1957 36.8884V35.8884H95.1957V36.8884H94.1957ZM94.1957 37.0641H95.1957V37.9083L94.3635 38.05L94.1957 37.0641ZM93.6813 37.1517H92.6813V36.3075L93.5135 36.1659L93.6813 37.1517ZM93.6813 39.0221V40.0221H92.6813V39.0221H93.6813ZM95.7992 39.0221H96.7992V40.0221H95.7992V39.0221ZM95.7992 37.1517L95.967 36.1659L96.7992 36.3075V37.1517H95.7992ZM95.2849 37.0641L95.1171 38.05L94.2849 37.9083V37.0641H95.2849ZM95.2849 36.8884H94.2849V35.8884H95.2849V36.8884ZM97.2569 36.8884V35.8884H98.2569V36.8884H97.2569ZM97.2569 37.0641H98.2569V37.9288L97.4013 38.0537L97.2569 37.0641ZM96.6569 37.1517H95.6569V36.287L96.5125 36.1622L96.6569 37.1517ZM96.6569 41.173L96.5125 42.1625L95.6569 42.0377V41.173H96.6569ZM97.2569 41.2605L97.4013 40.271L98.2569 40.3958V41.2605H97.2569ZM97.2569 41.4363H98.2569V42.4363H97.2569V41.4363ZM95.2849 41.4363V42.4363H94.2849V41.4363H95.2849ZM95.2849 41.2605H94.2849V40.4163L95.1171 40.2747L95.2849 41.2605ZM95.7992 41.173H96.7992V42.0172L95.967 42.1588L95.7992 41.173ZM95.7992 39.2414V38.2414H96.7992V39.2414H95.7992ZM93.6813 39.2414H92.6813V38.2414H93.6813V39.2414ZM93.6813 41.173L93.5135 42.1588L92.6813 42.0172V41.173H93.6813ZM94.1957 41.2605L94.3635 40.2747L95.1957 40.4163V41.2605H94.1957ZM94.1957 41.4363H95.1957V42.4363H94.1957V41.4363ZM91.2236 41.4363V41.2605H93.2236V41.4363H91.2236ZM92.0793 40.271L92.6796 40.1834L92.9682 42.1625L92.3679 42.2501L92.0793 40.271ZM91.8239 41.173V37.1517H93.8239V41.173H91.8239ZM92.6796 38.1412L92.0793 38.0537L92.3679 36.0746L92.9682 36.1622L92.6796 38.1412ZM91.2236 37.0641V36.8884H93.2236V37.0641H91.2236ZM92.2236 35.8884H94.1957V37.8884H92.2236V35.8884ZM95.1957 36.8884V37.0641H93.1957V36.8884H95.1957ZM94.3635 38.05L93.8491 38.1375L93.5135 36.1659L94.0279 36.0783L94.3635 38.05ZM94.6813 37.1517V39.0221H92.6813V37.1517H94.6813ZM93.6813 38.0221H95.7992V40.0221H93.6813V38.0221ZM94.7992 39.0221V37.1517H96.7992V39.0221H94.7992ZM95.6314 38.1375L95.1171 38.05L95.4527 36.0783L95.967 36.1659L95.6314 38.1375ZM94.2849 37.0641V36.8884H96.2849V37.0641H94.2849ZM95.2849 35.8884H97.2569V37.8884H95.2849V35.8884ZM98.2569 36.8884V37.0641H96.2569V36.8884H98.2569ZM97.4013 38.0537L96.8013 38.1412L96.5125 36.1622L97.1126 36.0746L97.4013 38.0537ZM97.6569 37.1517V41.173H95.6569V37.1517H97.6569ZM96.8013 40.1835L97.4013 40.271L97.1126 42.25L96.5125 42.1625L96.8013 40.1835ZM98.2569 41.2605V41.4363H96.2569V41.2605H98.2569ZM97.2569 42.4363H95.2849V40.4363H97.2569V42.4363ZM94.2849 41.4363V41.2605H96.2849V41.4363H94.2849ZM95.1171 40.2747L95.6314 40.1872L95.967 42.1588L95.4527 42.2463L95.1171 40.2747ZM94.7992 41.173V39.2414H96.7992V41.173H94.7992ZM95.7992 40.2414H93.6813V38.2414H95.7992V40.2414ZM94.6813 39.2414V41.173H92.6813V39.2414H94.6813ZM93.8491 40.1872L94.3635 40.2747L94.0279 42.2463L93.5135 42.1588L93.8491 40.1872ZM95.1957 41.2605V41.4363H93.1957V41.2605H95.1957ZM94.1957 42.4363H92.2236V40.4363H94.1957V42.4363Z" fill="black" mask="url(#path-23-inside-9_8_571)"/>
<mask id="path-25-inside-10_8_571" fill="white">
<path d="M99.0386 41.4363V41.2605L99.6391 41.173V37.1517L99.0386 37.0641V36.8884H101.011V37.0641L100.496 37.1517V40.5672L102.666 37.3274V37.1517L102.151 37.0641V36.8884H104.124V37.0641L103.523 37.1517V41.173L104.124 41.2605V41.4363H102.151V41.2605L102.666 41.173V37.6961L100.496 40.9446V41.173L101.011 41.2605V41.4363H99.0386Z"/>
</mask>
<path d="M99.0386 41.4363V42.4363H98.0386V41.4363H99.0386ZM99.0386 41.2605H98.0386V40.3957L98.8943 40.271L99.0386 41.2605ZM99.6391 41.173H100.639V42.0378L99.7833 42.1625L99.6391 41.173ZM99.6391 37.1517L99.7833 36.1621L100.639 36.2869V37.1517H99.6391ZM99.0386 37.0641L98.8943 38.0537L98.0386 37.9289V37.0641H99.0386ZM99.0386 36.8884H98.0386V35.8884H99.0386V36.8884ZM101.011 36.8884V35.8884H102.011V36.8884H101.011ZM101.011 37.0641H102.011V37.9084L101.179 38.05L101.011 37.0641ZM100.496 37.1517H99.4963V36.3074L100.329 36.1658L100.496 37.1517ZM100.496 40.5672L101.327 41.1236L99.4963 43.8575V40.5672H100.496ZM102.666 37.3274H103.666V37.6314L103.497 37.8839L102.666 37.3274ZM102.666 37.1517L102.834 36.1658L103.666 36.3074V37.1517H102.666ZM102.151 37.0641L101.984 38.05L101.151 37.9084V37.0641H102.151ZM102.151 36.8884H101.151V35.8884H102.151V36.8884ZM104.124 36.8884V35.8884H105.124V36.8884H104.124ZM104.124 37.0641H105.124V37.9289L104.268 38.0537L104.124 37.0641ZM103.523 37.1517H102.523V36.2869L103.379 36.1621L103.523 37.1517ZM103.523 41.173L103.379 42.1625L102.523 42.0378V41.173H103.523ZM104.124 41.2605L104.268 40.271L105.124 40.3957V41.2605H104.124ZM104.124 41.4363H105.124V42.4363H104.124V41.4363ZM102.151 41.4363V42.4363H101.151V41.4363H102.151ZM102.151 41.2605H101.151V40.4162L101.984 40.2747L102.151 41.2605ZM102.666 41.173H103.666V42.0173L102.834 42.1588L102.666 41.173ZM102.666 37.6961L101.834 37.1407L103.666 34.3984V37.6961H102.666ZM100.496 40.9446H99.4963V40.6414L99.6647 40.3892L100.496 40.9446ZM100.496 41.173L100.329 42.1588L99.4963 42.0173V41.173H100.496ZM101.011 41.2605L101.179 40.2747L102.011 40.4162V41.2605H101.011ZM101.011 41.4363H102.011V42.4363H101.011V41.4363ZM98.0386 41.4363V41.2605H100.039V41.4363H98.0386ZM98.8943 40.271L99.4948 40.1834L99.7833 42.1625L99.1828 42.2501L98.8943 40.271ZM98.6391 41.173V37.1517H100.639V41.173H98.6391ZM99.4948 38.1412L98.8943 38.0537L99.1828 36.0746L99.7833 36.1621L99.4948 38.1412ZM98.0386 37.0641V36.8884H100.039V37.0641H98.0386ZM99.0386 35.8884H101.011V37.8884H99.0386V35.8884ZM102.011 36.8884V37.0641H100.011V36.8884H102.011ZM101.179 38.05L100.664 38.1375L100.329 36.1658L100.843 36.0783L101.179 38.05ZM101.496 37.1517V40.5672H99.4963V37.1517H101.496ZM99.6654 40.0107L101.835 36.771L103.497 37.8839L101.327 41.1236L99.6654 40.0107ZM101.666 37.3274V37.1517H103.666V37.3274H101.666ZM102.498 38.1375L101.984 38.05L102.319 36.0783L102.834 36.1658L102.498 38.1375ZM101.151 37.0641V36.8884H103.151V37.0641H101.151ZM102.151 35.8884H104.124V37.8884H102.151V35.8884ZM105.124 36.8884V37.0641H103.124V36.8884H105.124ZM104.268 38.0537L103.667 38.1412L103.379 36.1621L103.979 36.0746L104.268 38.0537ZM104.523 37.1517V41.173H102.523V37.1517H104.523ZM103.667 40.1834L104.268 40.271L103.979 42.2501L103.379 42.1625L103.667 40.1834ZM105.124 41.2605V41.4363H103.124V41.2605H105.124ZM104.124 42.4363H102.151V40.4363H104.124V42.4363ZM101.151 41.4363V41.2605H103.151V41.4363H101.151ZM101.984 40.2747L102.498 40.1871L102.834 42.1588L102.319 42.2464L101.984 40.2747ZM101.666 41.173V37.6961H103.666V41.173H101.666ZM103.498 38.2515L101.328 41.5001L99.6647 40.3892L101.834 37.1407L103.498 38.2515ZM101.496 40.9446V41.173H99.4963V40.9446H101.496ZM100.664 40.1871L101.179 40.2747L100.843 42.2464L100.329 42.1588L100.664 40.1871ZM102.011 41.2605V41.4363H100.011V41.2605H102.011ZM101.011 42.4363H99.0386V40.4363H101.011V42.4363Z" fill="black" mask="url(#path-25-inside-10_8_571)"/>
<path d="M109.315 39.4194L109.485 39.2242L109.315 39.4194Z" stroke="black"/>
<mask id="path-28-inside-11_8_571" fill="white">
<path d="M117.823 40.866C118.04 40.5558 118.149 40.1341 118.149 39.6016V38.7237C118.149 38.1854 118.04 37.7639 117.823 37.4596C117.605 37.1552 117.288 37.0029 116.871 37.0029C116.453 37.0029 116.136 37.1552 115.919 37.4596C115.702 37.7639 115.593 38.1854 115.593 38.7237V39.6016C115.593 40.1341 115.702 40.5558 115.919 40.866C116.136 41.1763 116.453 41.3313 116.871 41.3313C117.288 41.3313 117.605 41.1763 117.823 40.866ZM115.284 40.8748C114.879 40.4416 114.667 39.8974 114.65 39.2418H113.835V41.1733L114.35 41.2609V41.4366H112.377V41.2609L112.978 41.1733V37.1521L112.377 37.0645V36.8887H114.35V37.0645L113.835 37.1521V39.0222H114.65C114.673 38.5832 114.784 38.1969 114.984 37.8634C115.184 37.5297 115.449 37.2707 115.778 37.0864C116.106 36.9021 116.471 36.81 116.871 36.81C117.282 36.81 117.658 36.9095 117.998 37.1085C118.338 37.3073 118.606 37.5868 118.8 37.9469C118.994 38.3068 119.092 38.712 119.092 39.1628C119.092 39.6136 118.994 40.0186 118.8 40.3785C118.606 40.7388 118.34 41.0195 118.003 41.2214C117.665 41.4233 117.288 41.5244 116.871 41.5244C116.253 41.5244 115.725 41.3078 115.284 40.8748Z"/>
</mask>
<path d="M117.823 37.4596L118.636 36.8782L118.636 36.8786L117.823 37.4596ZM115.919 37.4596L115.105 36.879L115.105 36.8786L115.919 37.4596ZM115.919 40.866L115.1 41.4397L115.1 41.4393L115.919 40.866ZM114.65 39.2418V38.2418H115.624L115.649 39.2156L114.65 39.2418ZM113.835 39.2418H112.835V38.2418H113.835V39.2418ZM113.835 41.1733L113.667 42.1592L112.835 42.0176V41.1733H113.835ZM114.35 41.2609L114.518 40.275L115.35 40.4166V41.2609H114.35ZM114.35 41.4366H115.35V42.4366H114.35V41.4366ZM112.377 41.4366V42.4366H111.377V41.4366H112.377ZM112.377 41.2609H111.377V40.3961L112.233 40.2713L112.377 41.2609ZM112.978 41.1733H113.978V42.0381L113.122 42.1629L112.978 41.1733ZM112.978 37.1521L113.122 36.1625L113.978 36.2873V37.1521H112.978ZM112.377 37.0645L112.233 38.054L111.377 37.9293V37.0645H112.377ZM112.377 36.8887H111.377V35.8887H112.377V36.8887ZM114.35 36.8887V35.8887H115.35V36.8887H114.35ZM114.35 37.0645H115.35V37.9088L114.518 38.0504L114.35 37.0645ZM113.835 37.1521H112.835V36.3078L113.667 36.1662L113.835 37.1521ZM113.835 39.0222V40.0222H112.835V39.0222H113.835ZM114.65 39.0222L115.648 39.0739L115.599 40.0222H114.65V39.0222ZM114.984 37.8634L115.842 38.3773L115.842 38.378L114.984 37.8634ZM115.778 37.0864L116.267 37.9585L116.267 37.9587L115.778 37.0864ZM117.998 37.1085L117.494 37.9718L117.493 37.9716L117.998 37.1085ZM118.8 37.9469L119.68 37.4715L119.68 37.4717L118.8 37.9469ZM118.8 40.3785L117.92 39.9033L117.92 39.9033L118.8 40.3785ZM118.003 41.2214L118.517 42.0791L118.516 42.0796L118.003 41.2214ZM117.004 40.2924C117.064 40.2061 117.149 40.0096 117.149 39.6016H119.149C119.149 40.2587 119.016 40.9056 118.642 41.4397L117.004 40.2924ZM117.149 39.6016V38.7237H119.149V39.6016H117.149ZM117.149 38.7237C117.149 38.3058 117.062 38.1156 117.009 38.0406L118.636 36.8786C119.017 37.4123 119.149 38.0651 119.149 38.7237H117.149ZM117.009 38.041C116.999 38.0268 116.993 38.0213 116.991 38.0202C116.99 38.0194 116.99 38.0193 116.989 38.0187C116.988 38.0183 116.957 38.0029 116.871 38.0029V36.0029C117.568 36.0029 118.207 36.2781 118.636 36.8782L117.009 38.041ZM116.871 38.0029C116.784 38.0029 116.753 38.0183 116.752 38.0187C116.751 38.0193 116.751 38.0194 116.75 38.0201C116.749 38.021 116.743 38.0265 116.733 38.0406L115.105 36.8786C115.534 36.2781 116.173 36.0029 116.871 36.0029V38.0029ZM116.733 38.0402C116.679 38.1156 116.593 38.3062 116.593 38.7237H114.593C114.593 38.0646 114.724 37.4123 115.105 36.879L116.733 38.0402ZM116.593 38.7237V39.6016H114.593V38.7237H116.593ZM116.593 39.6016C116.593 40.0091 116.678 40.206 116.738 40.2928L115.1 41.4393C114.726 40.9056 114.593 40.2591 114.593 39.6016H116.593ZM116.738 40.2924C116.749 40.3079 116.756 40.3141 116.757 40.3154C116.758 40.3164 116.758 40.3163 116.759 40.3166C116.76 40.317 116.767 40.3203 116.783 40.3238C116.8 40.3273 116.828 40.3313 116.871 40.3313V42.3313C116.166 42.3313 115.525 42.0475 115.1 41.4397L116.738 40.2924ZM116.871 40.3313C116.913 40.3313 116.942 40.3273 116.958 40.3238C116.975 40.3203 116.982 40.317 116.982 40.3166C116.983 40.3163 116.983 40.3163 116.984 40.3152C116.986 40.3139 116.993 40.3077 117.004 40.292L118.641 41.4401C118.216 42.0474 117.575 42.3313 116.871 42.3313V40.3313ZM114.555 41.5586C113.963 40.9275 113.673 40.1409 113.65 39.268L115.649 39.2156C115.661 39.654 115.794 39.9558 116.014 40.1911L114.555 41.5586ZM114.65 40.2418H113.835V38.2418H114.65V40.2418ZM114.835 39.2418V41.1733H112.835V39.2418H114.835ZM114.003 40.1875L114.518 40.275L114.182 42.2467L113.667 42.1592L114.003 40.1875ZM115.35 41.2609V41.4366H113.35V41.2609H115.35ZM114.35 42.4366H112.377V40.4366H114.35V42.4366ZM111.377 41.4366V41.2609H113.377V41.4366H111.377ZM112.233 40.2713L112.834 40.1838L113.122 42.1629L112.522 42.2504L112.233 40.2713ZM111.978 41.1733V37.1521H113.978V41.1733H111.978ZM112.834 38.1416L112.233 38.054L112.522 36.075L113.122 36.1625L112.834 38.1416ZM111.377 37.0645V36.8887H113.377V37.0645H111.377ZM112.377 35.8887H114.35V37.8887H112.377V35.8887ZM115.35 36.8887V37.0645H113.35V36.8887H115.35ZM114.518 38.0504L114.003 38.1379L113.667 36.1662L114.182 36.0787L114.518 38.0504ZM114.835 37.1521V39.0222H112.835V37.1521H114.835ZM113.835 38.0222H114.65V40.0222H113.835V38.0222ZM113.651 38.9706C113.681 38.3891 113.832 37.8398 114.127 37.3489L115.842 38.378C115.736 38.554 115.664 38.7773 115.648 39.0739L113.651 38.9706ZM114.126 37.3496C114.413 36.8709 114.803 36.4863 115.289 36.2141L116.267 37.9587C116.095 38.0551 115.955 38.1886 115.842 38.3773L114.126 37.3496ZM115.288 36.2143C115.776 35.9408 116.311 35.81 116.871 35.81V37.81C116.631 37.81 116.437 37.8634 116.267 37.9585L115.288 36.2143ZM116.871 35.81C117.452 35.81 118.003 35.9526 118.504 36.2455L117.493 37.9716C117.314 37.8664 117.113 37.81 116.871 37.81V35.81ZM118.503 36.2452C119.008 36.5404 119.402 36.9572 119.68 37.4715L117.92 38.4223C117.809 38.2164 117.669 38.0742 117.494 37.9718L118.503 36.2452ZM119.68 37.4717C119.961 37.992 120.092 38.5634 120.092 39.1628H118.092C118.092 38.8607 118.028 38.6215 117.92 38.4221L119.68 37.4717ZM120.092 39.1628C120.092 39.7623 119.961 40.3334 119.68 40.8537L117.92 39.9033C118.028 39.7038 118.092 39.4649 118.092 39.1628H120.092ZM119.68 40.8536C119.404 41.3655 119.014 41.7811 118.517 42.0791L117.489 40.3637C117.665 40.2578 117.807 40.1121 117.92 39.9033L119.68 40.8536ZM118.516 42.0796C118.014 42.3799 117.458 42.5244 116.871 42.5244V40.5244C117.118 40.5244 117.316 40.4668 117.49 40.3632L118.516 42.0796ZM116.871 42.5244C115.991 42.5244 115.21 42.2046 114.583 41.5877L115.986 40.162C116.239 40.411 116.516 40.5244 116.871 40.5244V42.5244Z" fill="black" mask="url(#path-28-inside-11_8_571)"/>
<path d="M121.799 37.8514L121.794 37.8502V37.8669C121.795 37.8617 121.797 37.8565 121.799 37.8514ZM121.794 40.4616V40.4921L121.804 40.4899C121.8 40.4805 121.797 40.4711 121.794 40.4616Z" stroke="black"/>
<mask id="path-31-inside-12_8_571" fill="white">
<path d="M129.737 40.9976C129.9 40.9039 130.038 40.7679 130.153 40.5894C130.267 40.4107 130.336 40.1959 130.359 39.9441V39.031H129.784C129.315 39.031 128.965 39.138 128.734 39.3517C128.502 39.5651 128.387 39.8652 128.387 40.2512C128.387 40.5732 128.461 40.8017 128.609 40.9362C128.758 41.0709 128.975 41.1381 129.261 41.1381C129.416 41.1381 129.574 41.0914 129.737 40.9976ZM127.889 41.2302C127.655 41.0344 127.537 40.7431 127.537 40.3566C127.537 39.8065 127.763 39.416 128.215 39.1849C128.666 38.9534 129.189 38.8379 129.784 38.8379H130.359V38.1619C130.359 37.8576 130.326 37.6218 130.26 37.4551C130.194 37.2883 130.093 37.1715 129.956 37.104C129.819 37.0368 129.633 37.0029 129.398 37.0029C129.129 37.0029 128.929 37.0571 128.798 37.1654C128.666 37.2737 128.601 37.4187 128.601 37.5999C128.601 37.7698 128.681 37.881 128.841 37.9336C128.841 38.0798 128.787 38.2086 128.678 38.3201C128.569 38.4311 128.441 38.4866 128.292 38.4866C128.132 38.4866 128.003 38.4415 127.906 38.3508C127.809 38.2601 127.761 38.1211 127.761 37.9336C127.761 37.5943 127.926 37.3222 128.258 37.1173C128.589 36.9122 129.004 36.81 129.501 36.81C130.644 36.81 131.216 37.3192 131.216 38.3375V40.8482C131.216 40.9771 131.243 41.0752 131.298 41.1427C131.352 41.2097 131.43 41.2435 131.533 41.2435C131.631 41.2435 131.708 41.2097 131.765 41.1427C131.822 41.0752 131.851 40.9831 131.851 40.866H132.031C132.031 41.0709 131.966 41.2318 131.838 41.3487C131.709 41.4658 131.53 41.5244 131.302 41.5244C131.039 41.5244 130.817 41.4468 130.637 41.2918C130.457 41.1366 130.364 40.8954 130.359 40.5675C130.221 40.866 130.011 41.1002 129.728 41.2699C129.445 41.4396 129.133 41.5244 128.789 41.5244C128.424 41.5244 128.124 41.4265 127.889 41.2302Z"/>
</mask>
<path d="M130.153 40.5894L130.995 41.1285L130.995 41.129L130.153 40.5894ZM130.359 39.9441H131.359V39.9896L131.355 40.0348L130.359 39.9441ZM130.359 39.031V38.031H131.359V39.031H130.359ZM128.734 39.3517L129.412 40.0867L129.412 40.0867L128.734 39.3517ZM128.609 40.9362L129.28 40.1944L129.281 40.1955L128.609 40.9362ZM129.737 40.9976L129.238 40.1309L129.239 40.1307L129.737 40.9976ZM128.215 39.1849L128.671 40.0747L128.67 40.0752L128.215 39.1849ZM130.359 38.8379H131.359V39.8379H130.359V38.8379ZM130.26 37.4551L131.19 37.0876L131.191 37.0886L130.26 37.4551ZM129.956 37.104L130.396 36.2062L130.397 36.2065L129.956 37.104ZM128.798 37.1654L129.434 37.9369L129.433 37.9379L128.798 37.1654ZM128.841 37.9336L129.153 36.9836L129.841 37.2096V37.9336H128.841ZM128.678 38.3201L129.395 39.0174L129.392 39.0203L128.678 38.3201ZM127.906 38.3508L128.589 37.6197L128.589 37.6205L127.906 38.3508ZM128.258 37.1173L128.784 37.9678L128.784 37.9679L128.258 37.1173ZM131.298 41.1427L130.52 41.7716L130.519 41.7706L131.298 41.1427ZM131.765 41.1427L132.528 41.7886L132.525 41.7925L131.765 41.1427ZM131.851 40.866H130.851V39.866H131.851V40.866ZM132.031 40.866V39.866H133.031V40.866H132.031ZM131.838 41.3487L132.512 42.0878L132.51 42.0889L131.838 41.3487ZM130.637 41.2918L129.985 42.05L129.984 42.0488L130.637 41.2918ZM130.359 40.5675L129.45 40.1497L131.359 40.5507L130.359 40.5675ZM129.728 41.2699L130.243 42.1274L130.243 42.1275L129.728 41.2699ZM129.239 40.1307C129.245 40.1268 129.272 40.1108 129.311 40.0499L130.995 41.129C130.805 41.425 130.554 41.6811 130.235 41.8645L129.239 40.1307ZM129.311 40.0504C129.323 40.0302 129.352 39.976 129.363 39.8535L131.355 40.0348C131.32 40.4159 131.211 40.7913 130.995 41.1285L129.311 40.0504ZM129.359 39.9441V39.031H131.359V39.9441H129.359ZM130.359 40.031H129.784V38.031H130.359V40.031ZM129.784 40.031C129.447 40.031 129.386 40.1101 129.412 40.0867L128.056 38.6167C128.544 38.1659 129.184 38.031 129.784 38.031V40.031ZM129.412 40.0867C129.411 40.0872 129.41 40.0863 129.406 40.0966C129.401 40.1112 129.387 40.1571 129.387 40.2512H127.387C127.387 39.6543 127.574 39.0612 128.056 38.6166L129.412 40.0867ZM129.387 40.2512C129.387 40.294 129.389 40.3235 129.392 40.3417C129.394 40.36 129.396 40.3632 129.393 40.355C129.387 40.3362 129.359 40.2659 129.28 40.1944L127.939 41.678C127.481 41.2645 127.387 40.6872 127.387 40.2512H129.387ZM129.281 40.1955C129.259 40.1749 129.236 40.1598 129.217 40.1492C129.198 40.1387 129.185 40.134 129.18 40.1325C129.171 40.1299 129.194 40.1381 129.261 40.1381V42.1381C128.832 42.1381 128.336 42.038 127.938 41.677L129.281 40.1955ZM129.261 40.1381C129.249 40.1381 129.239 40.1391 129.23 40.1404C129.221 40.1417 129.215 40.1432 129.213 40.144C129.207 40.1456 129.216 40.1439 129.238 40.1309L130.236 41.8643C129.954 42.0267 129.625 42.1381 129.261 42.1381V40.1381ZM127.248 41.9977C126.728 41.5635 126.537 40.9547 126.537 40.3566H128.537C128.537 40.4503 128.552 40.4882 128.553 40.4912C128.553 40.4922 128.551 40.4875 128.546 40.4799C128.54 40.4721 128.534 40.4662 128.53 40.4627L127.248 41.9977ZM126.537 40.3566C126.537 39.9442 126.623 39.528 126.841 39.1505C127.062 38.7683 127.384 38.4865 127.76 38.2946L128.67 40.0752C128.594 40.1144 128.577 40.1434 128.572 40.1518C128.565 40.1648 128.537 40.2189 128.537 40.3566H126.537ZM127.759 38.2951C128.374 37.9796 129.058 37.8379 129.784 37.8379V39.8379C129.32 39.8379 128.959 39.9273 128.671 40.0747L127.759 38.2951ZM129.784 37.8379H130.359V39.8379H129.784V37.8379ZM129.359 38.8379V38.1619H131.359V38.8379H129.359ZM129.359 38.1619C129.359 38.0439 129.352 37.9564 129.344 37.8949C129.335 37.8314 129.326 37.8119 129.33 37.8215L131.191 37.0886C131.323 37.4261 131.359 37.8075 131.359 38.1619H129.359ZM129.33 37.8226C129.332 37.828 129.345 37.8584 129.379 37.8976C129.415 37.9388 129.462 37.9756 129.515 38.0015L130.397 36.2065C130.795 36.4022 131.05 36.7319 131.19 37.0876L129.33 37.8226ZM129.515 38.0018C129.546 38.017 129.557 38.0162 129.535 38.0122C129.513 38.0082 129.469 38.0029 129.398 38.0029V36.0029C129.712 36.0029 130.069 36.0456 130.396 36.2062L129.515 38.0018ZM129.398 38.0029C129.364 38.0029 129.34 38.0046 129.324 38.0065C129.309 38.0083 129.304 38.0099 129.308 38.0088C129.316 38.0066 129.369 37.9907 129.434 37.9369L128.162 36.3938C128.55 36.0736 129.024 36.0029 129.398 36.0029V38.0029ZM129.433 37.9379C129.477 37.9016 129.526 37.8445 129.561 37.7681C129.595 37.6936 129.601 37.6314 129.601 37.5999H127.601C127.601 37.1435 127.782 36.7057 128.163 36.3928L129.433 37.9379ZM129.601 37.5999C129.601 37.5263 129.582 37.3785 129.473 37.2269C129.363 37.0745 129.227 37.008 129.153 36.9836L128.529 38.8836C128.294 38.8067 128.039 38.6582 127.849 38.3946C127.66 38.1317 127.601 37.8434 127.601 37.5999H129.601ZM129.841 37.9336C129.841 38.358 129.672 38.7323 129.395 39.0174L127.961 37.6228C127.938 37.6465 127.905 37.6892 127.878 37.752C127.851 37.816 127.841 37.8798 127.841 37.9336H129.841ZM129.392 39.0203C129.105 39.313 128.723 39.4866 128.292 39.4866V37.4866C128.238 37.4866 128.172 37.4974 128.104 37.5267C128.037 37.5557 127.991 37.593 127.964 37.6199L129.392 39.0203ZM128.292 39.4866C127.936 39.4866 127.543 39.3805 127.223 39.0811L128.589 37.6205C128.534 37.5682 128.469 37.5311 128.407 37.5093C128.348 37.4885 128.306 37.4866 128.292 37.4866V39.4866ZM127.224 39.0818C126.852 38.7349 126.761 38.2815 126.761 37.9336H128.761C128.761 37.9607 128.766 37.7853 128.589 37.6197L127.224 39.0818ZM126.761 37.9336C126.761 37.1911 127.157 36.6219 127.732 36.2667L128.784 37.9679C128.753 37.9868 128.738 38.0001 128.733 38.0052C128.728 38.0097 128.732 38.0067 128.739 37.9952C128.746 37.9832 128.753 37.9684 128.757 37.9533C128.761 37.9386 128.761 37.9309 128.761 37.9336H126.761ZM127.732 36.2668C128.26 35.9402 128.869 35.81 129.501 35.81V37.81C129.138 37.81 128.919 37.8842 128.784 37.9678L127.732 36.2668ZM129.501 35.81C130.2 35.81 130.911 35.9632 131.452 36.4451C132.016 36.9466 132.216 37.6421 132.216 38.3375H130.216C130.216 38.0146 130.131 37.9464 130.122 37.9387C130.092 37.9114 129.945 37.81 129.501 37.81V35.81ZM132.216 38.3375V40.8482H130.216V38.3375H132.216ZM132.216 40.8482C132.216 40.846 132.216 40.81 132.201 40.7528C132.184 40.693 132.149 40.6051 132.076 40.5147L130.519 41.7706C130.265 41.4555 130.216 41.096 130.216 40.8482H132.216ZM132.075 40.5137C132.001 40.422 131.903 40.3469 131.791 40.299C131.684 40.2531 131.591 40.2435 131.533 40.2435V42.2435C131.191 42.2435 130.8 42.1179 130.52 41.7716L132.075 40.5137ZM131.533 40.2435C131.465 40.2435 131.369 40.2559 131.264 40.3017C131.157 40.3484 131.069 40.4174 131.005 40.4928L132.525 41.7925C132.259 42.1039 131.892 42.2435 131.533 42.2435V40.2435ZM131.002 40.4968C130.863 40.6606 130.851 40.8229 130.851 40.866H132.851C132.851 41.1434 132.781 41.4898 132.528 41.7885L131.002 40.4968ZM131.851 39.866H132.031V41.866H131.851V39.866ZM133.031 40.866C133.031 41.2977 132.885 41.7475 132.512 42.0878L131.164 40.6095C131.117 40.6527 131.078 40.709 131.054 40.7695C131.031 40.8263 131.031 40.864 131.031 40.866H133.031ZM132.51 42.0889C132.146 42.4196 131.7 42.5244 131.302 42.5244V40.5244C131.332 40.5244 131.326 40.5204 131.296 40.5302C131.262 40.5413 131.213 40.5651 131.166 40.6084L132.51 42.0889ZM131.302 42.5244C130.826 42.5244 130.366 42.3775 129.985 42.05L131.289 40.5336C131.289 40.5331 131.286 40.5309 131.281 40.5282C131.277 40.5255 131.272 40.5236 131.269 40.5224C131.266 40.5213 131.266 40.5217 131.27 40.5224C131.275 40.5232 131.285 40.5244 131.302 40.5244V42.5244ZM129.984 42.0488C129.517 41.6457 129.367 41.0865 129.359 40.5843L131.359 40.5507C131.36 40.627 131.371 40.6483 131.366 40.6351C131.363 40.6275 131.356 40.6119 131.342 40.5923C131.329 40.5724 131.311 40.5525 131.291 40.5348L129.984 42.0488ZM131.267 40.9854C131.045 41.4676 130.697 41.8546 130.243 42.1274L129.214 40.4125C129.325 40.3459 129.397 40.2645 129.45 40.1497L131.267 40.9854ZM130.243 42.1275C129.798 42.3942 129.306 42.5244 128.789 42.5244V40.5244C128.959 40.5244 129.093 40.485 129.214 40.4123L130.243 42.1275ZM128.789 42.5244C128.238 42.5244 127.695 42.3725 127.247 41.9967L128.532 40.4637C128.552 40.4805 128.61 40.5244 128.789 40.5244V42.5244Z" fill="black" mask="url(#path-31-inside-12_8_571)"/>
</g>
<defs>
<filter id="filter0_d_8_571" x="0" y="0" width="166" height="52" filterUnits="userSpaceOnUse" color-interpolation-filters="sRGB">
<feFlood flood-opacity="0" result="BackgroundImageFix"/>
<feColorMatrix in="SourceAlpha" type="matrix" values="0 0 0 0 0 0 0 0 0 0 0 0 0 0 0 0 0 0 127 0" result="hardAlpha"/>
<feOffset dy="4"/>
<feGaussianBlur stdDeviation="2"/>
<feComposite in2="hardAlpha" operator="out"/>
<feColorMatrix type="matrix" values="0 0 0 0 0 0 0 0 0 0 0 0 0 0 0 0 0 0 0.25 0"/>
<feBlend mode="normal" in2="BackgroundImageFix" result="effect1_dropShadow_8_571"/>
<feBlend mode="normal" in="SourceGraphic" in2="effect1_dropShadow_8_571" result="shape"/>
</filter>
</defs>
</svg>
