<svg width="178" height="48" viewBox="0 0 178 48" fill="none" xmlns="http://www.w3.org/2000/svg">
<path d="M30.9118 25.0123C30.8871 24.9859 30.8655 24.9635 30.8406 24.9372H30.8378L20.0275 14.0059L29.016 4.84004H29.022C29.0863 4.77187 29.1429 4.71329 29.2055 4.64732L31.3551 2.4553C33.0144 0.843649 33.3928 0.722555 33.3928 0.722555H33.0544H32.9025H31.1987H27.5291L17.567 11.4375L7.72628 0.722555H3.93376H2.2297H2.16044H1.73943C1.73943 0.722555 2.27076 0.886969 4.87694 3.55353L5.97225 4.69483C6.01975 4.74529 6.0618 4.78885 6.11028 4.84004H6.11176L14.9457 14.046L4.38024 24.9372H4.37085C4.21303 25.1048 4.06783 25.2564 3.9209 25.4107L2.82114 26.5444C0.493979 28.8957 0 29.0549 0 29.0549H0.385635H0.490267H2.19433H5.9114L17.5267 16.6545L29.2231 29.0549H33.0173H34.7211H34.9096H35.2114C35.2114 29.0549 34.8977 28.9535 33.5984 27.7288L30.9118 25.0123Z" fill="black"/>
<path d="M174.937 15.1296C173.323 13.8189 171.038 13.0163 168.08 12.7217L159.247 11.8789C158.387 11.7985 157.675 11.6983 157.11 11.5779C156.545 11.4573 155.954 11.2705 155.335 11.016C154.717 10.762 154.253 10.3877 153.944 9.89244C153.635 9.39772 153.48 8.78855 153.48 8.06641C153.48 7.15721 153.762 6.37477 154.327 5.71859C154.892 5.06339 155.651 4.57483 156.606 4.25388C157.56 3.93268 158.548 3.6991 159.57 3.55167C160.592 3.40498 161.681 3.33089 162.837 3.33089C165.23 3.33089 167.233 3.65209 168.846 4.29399C169.038 4.37005 169.227 4.45152 169.415 4.53668L169.413 4.53766C173.1 6.34622 172.516 7.54585 172.516 7.54585L172.966 7.35141L174.54 6.70113L174.538 6.6972L177.034 5.69865C174.345 1.90015 169.599 3.24992e-05 162.797 3.24992e-05C158.79 3.24992e-05 155.658 0.615846 153.4 1.84624C150.764 3.23736 149.447 5.3777 149.447 8.267C149.447 10.1932 150.119 11.7724 151.464 13.0025C152.135 13.6183 152.976 14.0998 153.985 14.4473C154.993 14.7953 155.947 15.0291 156.848 15.1495C157.748 15.2699 159.355 15.4372 161.668 15.6511L166.023 16.0523C167.045 16.1328 167.912 16.2401 168.625 16.3735C169.337 16.5076 170.097 16.7284 170.903 17.0356C171.71 17.3435 172.321 17.7917 172.738 18.3799C173.155 18.9689 173.364 19.6911 173.364 20.5471C173.364 22.0989 172.718 23.3702 171.428 24.3594C169.734 25.6437 167.193 26.2858 163.805 26.2858C160.578 26.2858 157.849 25.8312 155.618 24.9216C155.259 24.7788 154.925 24.6296 154.608 24.4763C154.216 24.2792 153.866 24.0882 153.569 23.907C153.567 23.9055 153.565 23.9045 153.563 23.9031C151.206 22.4625 151.653 21.5444 151.653 21.5444L151.203 21.7386L149.631 22.3889L147.35 23.3161C148.694 25.5103 150.818 27.1286 153.722 28.1719C156.626 29.2155 159.852 29.7371 163.402 29.7371C166.037 29.7371 168.308 29.4626 170.218 28.9143C172.127 28.3664 173.578 27.6302 174.574 26.7075C175.568 25.7842 176.281 24.8147 176.711 23.7977C177.141 22.7812 177.357 21.6847 177.357 20.507C177.357 18.2332 176.55 16.4407 174.937 15.1296Z" fill="black"/>
<path d="M68.8565 0.722555H67.1524H64.9942C64.9942 1.68566 65.0345 9.48499 65.1154 24.1188L42.9733 0.722555H38.8191V24.9372C38.8191 28.8415 38.3289 29.0549 38.3289 29.0549H38.8191H40.5232H42.6908C42.6908 27.6643 42.6638 19.8517 42.6102 5.61855L64.9136 29.0549H68.8661V3.98967C68.9319 0.911337 69.3465 0.722555 69.3465 0.722555H68.8661H68.8565Z" fill="black"/>
<path d="M114.142 0.722555H113.653H113.652H111.948H111.519H109.815H109.814H109.325C109.325 0.722555 109.802 0.937426 109.814 4.69729V25.0802C109.802 28.8401 109.325 29.0549 109.325 29.0549H109.814H109.815H111.519H111.948H113.652H113.653H114.142C114.142 29.0549 113.665 28.8401 113.653 25.0802V4.69729C113.665 0.937426 114.142 0.722555 114.142 0.722555Z" fill="black"/>
<path d="M140.127 25.2355H124.699V4.84005H124.701C124.701 0.935952 125.191 0.722557 125.191 0.722557H124.701H124.699H122.997H122.569H120.865H120.852H120.375C120.375 0.722557 120.779 0.908631 120.852 3.87325V25.904C120.779 28.8686 120.375 29.0547 120.375 29.0547H120.852H120.865H122.569H143.801V26.9345V25.239V25.2355V24.7514C143.801 24.7514 143.595 25.1978 140.127 25.2355Z" fill="black"/>
<path d="M82.0691 18.8216L89.1673 4.77556L96.1448 18.8216H82.0691ZM103.931 24.9372H103.904L91.4259 0.722555H87.1105L73.7996 26.2707C72.3226 28.8908 71.8647 29.0549 71.8647 29.0549H72.3491H72.3548H74.0588H76.9064L80.3752 22.0723H97.8791L101.348 29.0549H104.397H106.026H106.101H106.591C106.591 29.0549 105.989 28.8415 103.931 24.9372" fill="black"/>
<path d="M39.5724 44.9769C39.1937 44.7633 38.8939 44.4598 38.6725 44.0672C38.4511 43.6746 38.3406 43.2259 38.3406 42.7216C38.3406 42.1915 38.4573 41.7319 38.6918 41.3423C38.9258 40.9529 39.2323 40.6576 39.611 40.4567C39.9895 40.2554 40.3969 40.155 40.8335 40.155C41.1993 40.155 41.5328 40.217 41.8343 40.3413C42.1358 40.4661 42.375 40.6401 42.5516 40.8636C42.728 41.0873 42.8161 41.3394 42.8161 41.6199C42.8161 41.8309 42.7616 41.9923 42.6525 42.1038C42.5432 42.2156 42.399 42.2712 42.2194 42.2712C42.046 42.2712 41.9018 42.2139 41.7865 42.0989C41.6708 41.984 41.6129 41.8402 41.6129 41.6679C41.7094 41.6042 41.7766 41.534 41.8152 41.4573C41.8538 41.3807 41.8729 41.285 41.8729 41.17C41.8729 40.934 41.7781 40.7405 41.5889 40.5906C41.3999 40.4405 41.1479 40.3654 40.8335 40.3654C40.3714 40.3654 40.0169 40.5298 39.7698 40.8587C39.5227 41.1877 39.3993 41.649 39.3993 42.2427V43.2003C39.3993 43.7689 39.5197 44.2252 39.7602 44.5698C40.0011 44.9149 40.3585 45.0872 40.8335 45.0872C41.2698 45.0872 41.6498 44.9643 41.9743 44.7185C42.2978 44.4726 42.4987 44.1487 42.5756 43.7463H42.797C42.707 44.2188 42.4841 44.5954 42.1279 44.8765C41.7719 45.1576 41.3401 45.2979 40.8335 45.2979C40.3714 45.2979 39.9511 45.191 39.5724 44.9769Z" fill="black"/>
<path d="M45.9561 45.2021V45.0104L46.7261 44.9149V40.4807H45.8984L45.0611 42.0606H44.7915L44.936 40.2409H49.479L49.6234 42.0606H49.3538L48.5068 40.4807H47.6888V44.9149L48.4589 45.0104V45.2021H45.9561Z" fill="black"/>
<path d="M51.8066 47.7499C51.601 47.5838 51.4983 47.3603 51.4983 47.0792C51.4983 46.888 51.5545 46.7329 51.667 46.6148C51.7791 46.4967 51.9186 46.4378 52.0856 46.4378C52.2073 46.4378 52.3166 46.4632 52.4128 46.5144C52.5093 46.5653 52.5862 46.6421 52.6439 46.744C52.5476 46.8784 52.4994 47.0184 52.4994 47.1656C52.4994 47.2934 52.5412 47.3987 52.6248 47.4817C52.7079 47.5644 52.8138 47.6062 52.9422 47.6062C53.0963 47.6062 53.2294 47.555 53.3417 47.4529C53.4537 47.3507 53.5551 47.1718 53.6449 46.9166L54.2225 45.2692L51.9894 40.5381L51.3442 40.4424V40.2506H53.7412V40.4424L53.0673 40.5573L54.6747 43.9765L55.8202 40.6816L54.9925 40.4424V40.2506H56.7248V40.4424L56.0703 40.6816L53.9143 46.9166C53.7797 47.2934 53.6175 47.5678 53.4285 47.7401C53.239 47.9129 52.9679 47.9988 52.6149 47.9988C52.2812 47.9988 52.0119 47.9158 51.8066 47.7499Z" fill="black"/>
<path d="M61.4598 40.4808H59.8616L59.7562 41.9938C59.711 42.6706 59.6598 43.1703 59.6021 43.4927C59.5442 43.8154 59.4735 44.0851 59.3904 44.3022C59.3325 44.4428 59.2699 44.5621 59.2026 44.6613C59.1354 44.76 59.0775 44.8321 59.0292 44.8767C58.9812 44.9212 58.9506 44.9503 58.938 44.9631H61.4598V40.4808ZM63.2499 46.7827H62.9803L62.1336 45.2023H59.0339L58.1966 46.7827H57.927L58.0717 44.9631H58.3794C58.5207 44.9631 58.6589 44.9023 58.7935 44.7807C58.9281 44.6596 59.0468 44.4841 59.1497 44.2542C59.2395 44.0435 59.3115 43.7817 59.3661 43.4688C59.4206 43.156 59.4705 42.6645 59.5153 41.9938L59.5925 40.8446L58.7166 40.4328V40.2411H63.0958V40.4328L62.4223 40.5283V44.9631H63.1057L63.2499 46.7827Z" fill="black"/>
<path d="M65.1016 45.2021V45.0104L65.7756 44.9149V40.5282L65.1016 40.4327V40.2409H67.3157V40.4327L66.7378 40.5282V44.2541L69.1733 40.7199V40.5282L68.5955 40.4327V40.2409H70.8096V40.4327L70.1356 40.5282V44.9149L70.8096 45.0104V45.2021H68.5955V45.0104L69.1733 44.9149V41.1221L66.7378 44.6658V44.9149L67.3157 45.0104V45.2021H65.1016Z" fill="black"/>
<path d="M76.4285 42.6835V40.4809H75.6199C75.2479 40.4809 74.9733 40.5638 74.7967 40.7297C74.6203 40.8958 74.5322 41.1607 74.5322 41.5247V41.649C74.5322 42.0066 74.622 42.2685 74.8016 42.4344C74.9812 42.6005 75.2283 42.6835 75.5427 42.6835H76.4285ZM73.0691 45.1878C72.9021 45.1147 72.7579 45.0077 72.6357 44.8671L72.7804 44.7234C72.896 44.8383 73.008 44.8957 73.1171 44.8957C73.2136 44.8957 73.2858 44.861 73.334 44.7903C73.382 44.7204 73.4283 44.5799 73.4735 44.3692L73.5794 43.8137C73.6371 43.5009 73.7429 43.2678 73.8968 43.1144C74.0509 42.9611 74.3012 42.8592 74.6478 42.8078V42.76C74.3076 42.7024 74.0301 42.5781 73.8149 42.3864C73.6002 42.1949 73.4926 41.9141 73.4926 41.5436C73.4926 41.1159 73.6371 40.792 73.9257 40.5717C74.2144 40.3514 74.6829 40.2411 75.3312 40.2411H78.0841V40.4425L77.391 40.5382V44.9055L78.0841 45.0106V45.2024H75.7354V45.0106L76.4285 44.9055V42.9227H75.5427C75.2669 42.9227 75.0534 42.9835 74.9028 43.1051C74.7519 43.2262 74.6539 43.4273 74.6092 43.7083L74.465 44.5225C74.4135 44.8034 74.3205 45.0027 74.1857 45.1209C74.0509 45.239 73.8424 45.2981 73.5599 45.2981C73.3996 45.2981 73.2361 45.2614 73.0691 45.1878" fill="black"/>
<path d="M83.4453 45.2021V45.0104L84.1768 44.7232V40.5188L83.5029 40.4327V40.2409H85.3703L86.8913 43.8231L88.4022 40.2409H90.1735V40.4327L89.4994 40.5282V44.9149L90.1735 45.0104V45.2021H87.9594V45.0104L88.5372 44.9149V40.5572L86.5445 45.2021H86.429L84.4174 40.5572V44.7232L85.1489 45.0104V45.2021H83.4453Z" fill="black"/>
<path d="M94.6132 44.7231C94.796 44.621 94.9516 44.4726 95.08 44.2779C95.2083 44.083 95.2853 43.8486 95.311 43.574V42.5779H94.6659C94.1397 42.5779 93.7469 42.6945 93.487 42.9276C93.2272 43.1605 93.0971 43.4878 93.0971 43.9089C93.0971 44.2602 93.1805 44.5095 93.3472 44.6562C93.5142 44.8031 93.7581 44.8765 94.0791 44.8765C94.2523 44.8765 94.4301 44.8255 94.6132 44.7231V44.7231ZM92.5391 44.9769C92.2759 44.7633 92.144 44.4455 92.144 44.0239C92.144 43.4238 92.3976 42.9978 92.9047 42.7457C93.4113 42.4932 93.9985 42.3672 94.6659 42.3672H95.311V41.6298C95.311 41.2978 95.2739 41.0406 95.2004 40.8587C95.1265 40.6768 95.0127 40.5493 94.8586 40.4757C94.7045 40.4024 94.4959 40.3654 94.2327 40.3654C93.9312 40.3654 93.7066 40.4245 93.5592 40.5426C93.4113 40.6608 93.3378 40.819 93.3378 41.0167C93.3378 41.202 93.4276 41.3234 93.6072 41.3807C93.6072 41.5402 93.5463 41.6807 93.4246 41.8023C93.3024 41.9234 93.158 41.984 92.9912 41.984C92.8114 41.984 92.667 41.9347 92.5581 41.8358C92.449 41.7369 92.3946 41.5852 92.3946 41.3807C92.3946 41.0105 92.5806 40.7137 92.9527 40.4902C93.3249 40.2665 93.79 40.155 94.3483 40.155C95.6316 40.155 96.2737 40.7105 96.2737 41.8213V44.5602C96.2737 44.7007 96.3039 44.8078 96.365 44.8814C96.4256 44.9545 96.5141 44.9914 96.6297 44.9914C96.7387 44.9914 96.8253 44.9545 96.8896 44.8814C96.9535 44.8078 96.9859 44.7074 96.9859 44.5796H97.1877C97.1877 44.8031 97.1155 44.9786 96.9713 45.1061C96.8268 45.2339 96.6262 45.2979 96.3697 45.2979C96.0743 45.2979 95.826 45.2132 95.6237 45.0441C95.4218 44.8748 95.3172 44.6116 95.311 44.254C95.1569 44.5796 94.9209 44.8351 94.6035 45.0202C94.2859 45.2053 93.9344 45.2979 93.5495 45.2979C93.1389 45.2979 92.802 45.191 92.5391 44.9769" fill="black"/>
<path d="M99.0322 45.2021V45.0104L99.706 44.9149V40.5282L99.0322 40.4327V40.2409H101.246V40.4327L100.669 40.5282V42.5686H103.046V40.5282L102.469 40.4327V40.2409H104.682V40.4327L104.009 40.5282V44.9149L104.682 45.0104V45.2021H102.469V45.0104L103.046 44.9149V42.8078H100.669V44.9149L101.246 45.0104V45.2021H99.0322Z" fill="black"/>
<path d="M106.682 45.2021V45.0104L107.356 44.9149V40.5282L106.682 40.4327V40.2409H108.896V40.4327L108.318 40.5282V44.2541L110.754 40.7199V40.5282L110.176 40.4327V40.2409H112.39V40.4327L111.716 40.5282V44.9149L112.39 45.0104V45.2021H110.176V45.0104L110.754 44.9149V41.1221L108.318 44.6658V44.9149L108.896 45.0104V45.2021H106.682Z" fill="black"/>
<path d="M118.25 45.1209C118.115 45.0027 118.022 44.8034 117.971 44.5225L117.778 43.507C117.721 43.207 117.624 42.9963 117.489 42.875C117.355 42.7539 117.172 42.6896 116.941 42.6835H116.045V44.9055L116.739 45.0106V45.2024H114.39V45.0106L115.083 44.9055V40.5382L114.39 40.4425V40.2411H116.739V40.4425L116.045 40.5382V42.4632H116.951C117.111 42.4504 117.239 42.3945 117.335 42.2956C117.431 42.1966 117.512 42.0261 117.576 41.7831L117.749 41.0937C117.826 40.7809 117.931 40.5461 118.062 40.3895C118.194 40.2333 118.398 40.1552 118.673 40.1552C118.904 40.1552 119.084 40.2173 119.212 40.3416C119.341 40.4663 119.405 40.618 119.405 40.7966C119.405 40.9628 119.352 41.1048 119.246 41.2229C119.14 41.3411 118.997 41.3999 118.818 41.3999C118.721 41.3999 118.628 41.3842 118.539 41.3519C118.558 41.2946 118.567 41.2404 118.567 41.1895C118.567 41.1065 118.542 41.0361 118.491 40.9788C118.439 40.9214 118.375 40.8924 118.298 40.8924C118.144 40.8924 118.041 40.982 117.99 41.1607L117.807 41.8503C117.724 42.1504 117.615 42.361 117.48 42.4824C117.903 42.5208 118.213 42.6227 118.409 42.7888C118.604 42.9549 118.734 43.207 118.798 43.5454L118.962 44.3692C119.007 44.5799 119.053 44.7204 119.102 44.7903C119.15 44.861 119.222 44.8957 119.318 44.8957C119.427 44.8957 119.54 44.8383 119.655 44.7234L119.8 44.8671C119.677 45.0077 119.533 45.1147 119.367 45.1878C119.2 45.2614 119.036 45.2981 118.876 45.2981C118.593 45.2981 118.385 45.239 118.25 45.1209Z" fill="black"/>
<path d="M127.767 44.5799C128.011 44.2415 128.133 43.7815 128.133 43.2006V42.2429C128.133 41.6556 128.011 41.1959 127.767 40.8638C127.523 40.5318 127.167 40.3657 126.699 40.3657C126.23 40.3657 125.874 40.5318 125.63 40.8638C125.387 41.1959 125.265 41.6556 125.265 42.2429V43.2006C125.265 43.7815 125.387 44.2415 125.63 44.5799C125.874 44.9183 126.23 45.0874 126.699 45.0874C127.167 45.0874 127.523 44.9183 127.767 44.5799V44.5799ZM124.918 44.5895C124.463 44.1169 124.225 43.5233 124.206 42.808H123.291V44.9151L123.869 45.0106V45.2024H121.655V45.0106L122.329 44.9151V40.5284L121.655 40.4329V40.2411H123.869V40.4329L123.291 40.5284V42.5685H124.206C124.231 42.0896 124.357 41.6682 124.581 41.3044C124.806 40.9404 125.103 40.6578 125.472 40.4567C125.841 40.2557 126.25 40.1552 126.699 40.1552C127.161 40.1552 127.583 40.2638 127.965 40.4809C128.346 40.6977 128.646 41.0027 128.865 41.3955C129.083 41.7881 129.192 42.2301 129.192 42.7219C129.192 43.2136 129.083 43.6554 128.865 44.048C128.646 44.4411 128.348 44.7473 127.97 44.9675C127.591 45.1878 127.167 45.2981 126.699 45.2981C126.006 45.2981 125.412 45.0618 124.918 44.5895" fill="black"/>
<path d="M135.494 43.2105V42.2526C135.494 41.0141 135.048 40.3946 134.156 40.3946C133.874 40.3946 133.617 40.4761 133.386 40.639C133.155 40.8017 132.973 41.0202 132.838 41.2947C132.703 41.5696 132.632 41.8662 132.626 42.1857V43.2105C132.626 43.5359 132.692 43.8411 132.823 44.1252C132.955 44.409 133.138 44.6359 133.372 44.805C133.606 44.9743 133.868 45.0587 134.156 45.0587C135.048 45.0587 135.494 44.4429 135.494 43.2105ZM130.99 47.7214L131.664 47.6254V40.5383L130.99 40.4426V40.2509H132.626V41.2568C132.786 40.9117 133.003 40.6422 133.276 40.4473C133.548 40.2526 133.874 40.1554 134.253 40.1554C134.708 40.1554 135.11 40.2624 135.456 40.4761C135.802 40.6902 136.072 40.9902 136.264 41.3762C136.457 41.7626 136.553 42.2142 136.553 42.7316C136.553 43.2487 136.457 43.7003 136.264 44.0868C136.072 44.4732 135.802 44.7715 135.456 44.9822C135.11 45.1929 134.708 45.2985 134.253 45.2985C133.874 45.2985 133.548 45.2007 133.276 45.0063C133.003 44.8116 132.786 44.5451 132.626 44.2066V47.6254L133.531 47.7214V47.9131H130.99V47.7214Z" fill="black"/>
<path d="M141.141 44.7231C141.324 44.621 141.48 44.4726 141.608 44.2779C141.736 44.083 141.813 43.8486 141.839 43.574V42.5779H141.194C140.668 42.5779 140.275 42.6945 140.015 42.9276C139.755 43.1605 139.625 43.4878 139.625 43.9089C139.625 44.2602 139.709 44.5095 139.876 44.6562C140.042 44.8031 140.286 44.8765 140.607 44.8765C140.78 44.8765 140.958 44.8255 141.141 44.7231V44.7231ZM139.067 44.9769C138.804 44.7633 138.672 44.4455 138.672 44.0239C138.672 43.4238 138.926 42.9978 139.433 42.7457C139.939 42.4932 140.527 42.3672 141.194 42.3672H141.839V41.6298C141.839 41.2978 141.802 41.0406 141.728 40.8587C141.655 40.6768 141.541 40.5493 141.387 40.4757C141.233 40.4024 141.024 40.3654 140.761 40.3654C140.459 40.3654 140.235 40.4245 140.087 40.5426C139.939 40.6608 139.866 40.819 139.866 41.0167C139.866 41.202 139.956 41.3234 140.135 41.3807C140.135 41.5402 140.074 41.6807 139.953 41.8023C139.831 41.9234 139.686 41.984 139.519 41.984C139.34 41.984 139.195 41.9347 139.086 41.8358C138.977 41.7369 138.923 41.5852 138.923 41.3807C138.923 41.0105 139.109 40.7137 139.481 40.4902C139.853 40.2665 140.318 40.155 140.876 40.155C142.16 40.155 142.802 40.7105 142.802 41.8213V44.5602C142.802 44.7007 142.832 44.8078 142.893 44.8814C142.954 44.9545 143.042 44.9914 143.158 44.9914C143.267 44.9914 143.353 44.9545 143.418 44.8814C143.482 44.8078 143.514 44.7074 143.514 44.5796H143.716C143.716 44.8031 143.644 44.9786 143.5 45.1061C143.355 45.2339 143.154 45.2979 142.898 45.2979C142.602 45.2979 142.354 45.2132 142.152 45.0441C141.95 44.8748 141.845 44.6116 141.839 44.254C141.685 44.5796 141.449 44.8351 141.132 45.0202C140.814 45.2053 140.463 45.2979 140.078 45.2979C139.667 45.2979 139.33 45.191 139.067 44.9769" fill="black"/>
</svg>
