<svg width="17" height="16" viewBox="0 0 17 16" fill="none" xmlns="http://www.w3.org/2000/svg">
<path d="M12.4072 5.72368C12.4518 5.77035 12.4867 5.82533 12.51 5.88549C12.5332 5.94566 12.5445 6.00982 12.543 6.07431C12.5414 6.13881 12.5273 6.20237 12.5012 6.26138C12.4751 6.32039 12.4377 6.37369 12.391 6.41823L7.58764 11.0033C7.49626 11.0905 7.37479 11.1392 7.24847 11.1392C7.12215 11.1392 7.00068 11.0905 6.9093 11.0033L4.50753 8.71077C4.4149 8.62045 4.36164 8.49722 4.35932 8.36786C4.357 8.2385 4.4058 8.11344 4.49513 8.01985C4.58447 7.92626 4.70711 7.87169 4.83644 7.86799C4.96577 7.86429 5.09134 7.91175 5.18588 8.00008L7.24851 9.96888L11.7127 5.70755C11.8069 5.61761 11.933 5.56878 12.0632 5.5718C12.1935 5.57483 12.3172 5.62946 12.4071 5.72368H12.4072ZM16.1457 1.47781V14.578C16.1453 14.8819 16.0245 15.1733 15.8096 15.3882C15.5947 15.6031 15.3033 15.724 14.9994 15.7243H1.8992C1.5953 15.724 1.30394 15.6031 1.08905 15.3882C0.874155 15.1733 0.753276 14.8819 0.75293 14.578V1.47781C0.753276 1.17391 0.874155 0.882553 1.08905 0.66766C1.30394 0.452768 1.5953 0.33189 1.8992 0.331543H14.9994C15.3033 0.33189 15.5947 0.452768 15.8096 0.66766C16.0245 0.882553 16.1453 1.17391 16.1457 1.47781V1.47781ZM15.1632 1.47781C15.1631 1.4344 15.1459 1.39277 15.1152 1.36207C15.0845 1.33137 15.0428 1.3141 14.9994 1.31406H1.8992C1.85578 1.3141 1.81416 1.33137 1.78346 1.36207C1.75276 1.39277 1.73549 1.4344 1.73545 1.47781V14.578C1.73549 14.6214 1.75276 14.6631 1.78346 14.6938C1.81416 14.7245 1.85578 14.7417 1.8992 14.7418H14.9994C15.0428 14.7417 15.0845 14.7245 15.1152 14.6938C15.1459 14.6631 15.1631 14.6214 15.1632 14.578V1.47781Z" fill="black"/>
</svg>
