<svg width="23" height="14" viewBox="0 0 23 14" fill="none" xmlns="http://www.w3.org/2000/svg">
<path d="M1.95995 12.7932C0.684683 11.6733 1.82143e-06 10.4173 1.46545e-06 8.38137C8.39033e-07 4.79871 3.04206 1.58763 7.46586 -1.30537e-06L8.57151 1.41054C4.44238 3.25715 3.63512 5.65343 3.31321 7.16429C3.97808 6.87973 4.84848 6.78043 5.70154 6.84595C7.93511 7.01689 9.69572 8.53287 9.69572 10.4173C9.69572 11.3675 9.23917 12.2788 8.42649 12.9507C7.61382 13.6225 6.5116 14 5.3623 14C4.72672 13.9954 4.0986 13.8863 3.51448 13.6792C2.93037 13.472 2.40194 13.1708 1.95995 12.7932V12.7932ZM14.3411 12.7932C13.0659 11.6733 12.3812 10.4173 12.3812 8.38137C12.3812 4.79871 15.4233 1.58763 19.8471 -3.47017e-06L20.9527 1.41054C16.8236 3.25715 16.0163 5.65343 15.6944 7.16429C16.3593 6.87972 17.2297 6.78043 18.0827 6.84594C20.3163 7.01689 22.0769 8.53286 22.0769 10.4173C22.0769 11.3675 21.6204 12.2788 20.8077 12.9507C19.995 13.6225 18.8928 14 17.7435 14C17.1079 13.9954 16.4798 13.8863 15.8957 13.6792C15.3116 13.472 14.7831 13.1708 14.3411 12.7932V12.7932Z" fill="black" fill-opacity="0.7"/>
</svg>
