<svg width="34" height="23" viewBox="0 0 34 23" fill="none" xmlns="http://www.w3.org/2000/svg">
<path d="M0.502197 3.56848C0.502197 2.47372 1.13364 1.8834 2.39653 1.79754L7.26301 1.82974C7.58962 1.82974 7.80736 1.99073 7.91623 2.31272C8.41703 3.92267 8.97771 5.31259 9.59827 6.48249C10.2188 7.65239 11.0299 8.99938 12.0315 10.5235C12.1186 10.7167 12.2601 10.8133 12.4561 10.8133C12.6085 10.8133 12.7283 10.7381 12.8154 10.5879L12.9134 10.2337L12.946 4.66325C12.946 4.27686 12.8535 4.01927 12.6684 3.89047C12.4833 3.76167 12.1404 3.66508 11.6396 3.60068C11.2476 3.53628 11.0517 3.30016 11.0517 2.8923C11.0517 2.80644 11.0626 2.74204 11.0843 2.69911C11.5416 1.30382 12.848 0.606174 15.0037 0.606174L16.8327 0.573975C17.6601 0.573975 18.346 0.777902 18.8903 1.18576C19.4347 1.59361 19.7068 2.23759 19.7068 3.11769V10.4269C19.8592 10.5342 20.0008 10.5879 20.1314 10.5879C20.458 10.5879 20.7411 10.3947 20.9806 10.0083C23.3757 6.70252 24.6713 4.49152 24.8673 3.37529C24.8673 3.35382 24.889 3.30016 24.9326 3.21429C25.085 2.8923 25.3354 2.61324 25.6838 2.37712C26.0322 2.14099 26.337 1.98 26.5983 1.89413C26.6854 1.8512 26.7834 1.82974 26.8922 1.82974H31.9547L32.2813 1.86193C32.7168 1.86193 33.0543 2.06586 33.2938 2.47372C33.3809 2.60251 33.4407 2.74204 33.4734 2.8923C33.5061 3.04256 33.5278 3.19283 33.5387 3.34309C33.5496 3.49335 33.5551 3.57921 33.5551 3.60068V3.82607C33.4026 4.70618 33.0162 5.64532 32.3956 6.64348C31.775 7.64165 30.9857 8.72032 30.0277 9.87948C29.0696 11.0386 28.4708 11.8007 28.2313 12.1656C28.0354 12.4232 27.9374 12.6593 27.9374 12.874C27.9374 13.0457 28.0245 13.2389 28.1987 13.4536L32.9672 19.3782C33.2285 19.7216 33.3591 20.0973 33.3591 20.5052C33.3591 20.9989 33.1631 21.4067 32.7712 21.7287C32.3793 22.0507 31.9111 22.2332 31.3668 22.2761L30.8115 22.3083H25.8471C25.8253 22.3083 25.7818 22.3137 25.7164 22.3244C25.6511 22.3351 25.6076 22.3405 25.5858 22.3405C25.1068 22.3405 24.6604 22.1366 24.2467 21.7287C24.0943 21.557 23.0709 20.2905 21.1766 17.9292C21.0677 17.779 20.9153 17.6394 20.7193 17.5106C20.6322 17.8541 20.5179 18.3478 20.3764 18.9918C20.2348 19.6358 20.1314 20.0973 20.0661 20.3764L19.9681 20.9237C19.7504 21.675 19.2931 22.1258 18.5964 22.2761L18.1391 22.3083H14.9383C13.1311 22.3083 11.3293 21.4926 9.53294 19.8612C7.73659 18.2298 6.11988 16.1207 4.6828 13.5341C3.24572 10.9474 1.90662 7.93681 0.665502 4.50225C0.556632 4.22319 0.502197 3.91194 0.502197 3.56848ZM20.1314 11.908C19.6742 11.908 19.2605 11.7846 18.8903 11.5377C18.5201 11.2909 18.3351 10.9528 18.3351 10.5235V3.11769C18.3351 2.68838 18.2262 2.38248 18.0085 2.20002C17.7907 2.01756 17.4097 1.92633 16.8653 1.92633L15.0037 1.99073C14.0674 1.99073 13.3597 2.15173 12.8807 2.47372C13.8387 2.9245 14.3178 3.65434 14.3178 4.66325V10.3303C14.2742 10.8669 14.0565 11.3123 13.6646 11.6665C13.2726 12.0207 12.8371 12.1978 12.3581 12.1978C11.7049 12.1978 11.2041 11.8866 10.8557 11.264C9.15734 8.73105 7.89445 6.32686 7.06704 4.05147L6.7731 3.21429L2.42919 3.18209C2.14613 3.18209 1.98827 3.19819 1.95561 3.23039C1.92295 3.26259 1.90662 3.35382 1.90662 3.50408C1.90662 3.69728 1.92839 3.9012 1.97194 4.11586L2.65782 5.91901C4.48683 10.5771 6.4737 14.2478 8.61844 16.9311C10.7632 19.6143 12.8698 20.9559 14.9383 20.9559H18.2044C18.3351 20.9559 18.433 20.9184 18.4984 20.8432C18.5637 20.7681 18.6181 20.6232 18.6617 20.4086L18.727 20.0866L19.3476 17.2531C19.5217 16.8667 19.6742 16.6091 19.8048 16.4803C20.0443 16.2442 20.3274 16.1261 20.654 16.1261C21.1766 16.1261 21.71 16.4373 22.2544 17.0599L25.0306 20.5373C25.2047 20.8164 25.3898 20.9559 25.5858 20.9559H30.9748C31.6281 20.9559 31.9547 20.7949 31.9547 20.473C31.9547 20.3656 31.922 20.2583 31.8567 20.151L27.1209 14.3229C26.7507 13.8722 26.5656 13.3892 26.5656 12.874C26.5656 12.3588 26.7398 11.8651 27.0882 11.3928C27.3713 10.9635 27.921 10.2498 28.7376 9.2516C29.5541 8.25343 30.2672 7.31966 30.8769 6.45029C31.4865 5.58092 31.8894 4.79204 32.0853 4.08366L32.1833 3.66508C32.1615 3.62215 32.1506 3.55238 32.1506 3.45578C32.1506 3.35919 32.1398 3.27869 32.118 3.21429H26.9902C26.6636 3.34309 26.4023 3.53628 26.2064 3.79387L26.0104 4.40565C25.466 5.88681 24.0398 8.17294 21.7318 11.264C21.2745 11.6934 20.7411 11.908 20.1314 11.908Z" fill="black"/>
</svg>
